<?xml version="1.0" encoding="utf-8"?>
<!-- Generator: Adobe Illustrator 21.0.0, SVG Export Plug-In . SVG Version: 6.00 Build 0)  -->
<!DOCTYPE svg PUBLIC "-//W3C//DTD SVG 1.1//EN" "http://www.w3.org/Graphics/SVG/1.1/DTD/svg11.dtd">
<svg version="1.1" id="Capa_1" xmlns="http://www.w3.org/2000/svg" xmlns:xlink="http://www.w3.org/1999/xlink" x="0px" y="0px"
	 viewBox="0 0 446.5 348.5" style="enable-background:new 0 0 446.5 348.5;" xml:space="preserve">
<style type="text/css">
	.st0{fill:#FFFFFF;}
</style>
<g>
	<path class="st0" d="M409.9,0H36.6C16.4,0,0,16.4,0,36.6v275.3c0,20.2,16.4,36.6,36.6,36.6h373.4c20.2,0,36.6-16.4,36.6-36.6h0
		V36.6C446.5,16.4,430.1,0,409.9,0z M265.2,273.8c0,8.4-6.8,15.2-15.2,15.2H89c-8.4,0-15.2-6.8-15.2-15.2v-13.4
		c0-26.6,21.6-48.2,48.2-48.2h12.5c6.5,0,11.7-5.2,11.7-11.7c0-2.4-1-4.7-2.7-6.3c-7.1-7-13.1-16.3-17.5-26.3
		c-0.8,0.4-1.6,0.7-2.4,0.7c-7,0-15.2-15.5-15.2-26s1-19.1,8-19.1c0.6,0,1.2,0.1,1.9,0.3c0.5-28.5,5.8-64.1,51.3-64.1
		c43.6,0,50.8,35.6,51.3,64.2c0.9-0.2,1.8-0.4,2.6-0.4c7,0,8,8.5,8,19.1s-8.2,26-15.2,26c-1.1,0-2.1-0.5-2.9-1.1
		c-4.4,10.2-10.5,19.7-17.7,26.7c-1.7,1.7-2.7,4-2.7,6.4c0,6.5,5.2,11.7,11.7,11.7H217c26.6,0,48.2,21.6,48.2,48.3V273.8z
		 M243.9,153.6h117.6c6.3,0,11.3,5,11.3,11.3v17.9c0,6.3-5,11.3-11.3,11.3H220.9v-10.7c0.3-0.6,0.7-1.1,1-1.7
		C232.8,178.2,240.7,165.6,243.9,153.6z M372.7,256.5c0,6.2-5,11.3-11.3,11.3h-82.2v-7.4c0-12.2-3.6-23.5-9.6-33.1h91.8
		c6.3,0,11.3,5,11.3,11.3V256.5z M372.7,109c0,6.2-5,11.3-11.3,11.3H241.1c-1.8-3.5-3.9-6.3-6.8-8.1c-1.2-13.1-3.9-23.7-7.8-32.4
		h135c6.3,0,11.3,5.1,11.3,11.3V109z"/>
</g>
</svg>
