<?xml version="1.0" encoding="utf-8"?>
<!-- Generator: Adobe Illustrator 21.0.0, SVG Export Plug-In . SVG Version: 6.00 Build 0)  -->
<!DOCTYPE svg PUBLIC "-//W3C//DTD SVG 1.1//EN" "http://www.w3.org/Graphics/SVG/1.1/DTD/svg11.dtd">
<svg version="1.1" id="Layer_1" xmlns="http://www.w3.org/2000/svg" xmlns:xlink="http://www.w3.org/1999/xlink" x="0px" y="0px"
	 viewBox="0 0 370.3 370.3" style="enable-background:new 0 0 370.3 370.3;" xml:space="preserve">
<style type="text/css">
	.st0{fill:#DDDDDD;}
	.st1{fill:#FFFFFF;}
	.st2{fill:#BCBEC0;}
	.st3{fill:#939598;}
</style>
<g>
	<path class="st0" d="M185.2,0C82.9,0,0,82.9,0,185.2s82.9,185.2,185.2,185.2s185.2-82.9,185.2-185.2S287.4,0,185.2,0z M185.2,311.5
		c-69.8,0-126.3-56.6-126.3-126.3S115.4,58.8,185.2,58.8s126.3,56.6,126.3,126.3S254.9,311.5,185.2,311.5z"/>
	<path class="st1" d="M266,104.3c-21.6-21.6-50.3-33.5-80.8-33.5s-59.3,11.9-80.8,33.5c-21.6,21.6-33.5,50.3-33.5,80.8
		s11.9,59.3,33.5,80.8c21.6,21.6,50.3,33.5,80.8,33.5s59.3-11.9,80.8-33.5c21.6-21.6,33.5-50.3,33.5-80.8S287.6,125.9,266,104.3z
		 M236.2,223c-1.3,1.4-3,2.1-4.8,2.1c-1.6,0-3.1-0.6-4.4-1.7l-42-38.5l-42,38.5c-2.6,2.4-6.8,2.2-9.2-0.4c-2.4-2.6-2.2-6.8,0.4-9.2
		l46.3-42.4c1.2-1.1,2.8-1.7,4.4-1.7h0.3c1.6,0,3.2,0.6,4.4,1.7l46.3,42.4C238.5,216.2,238.6,220.3,236.2,223z"/>
	<path class="st2" d="M185.2,58.8c-69.8,0-126.3,56.6-126.3,126.3s56.6,126.3,126.3,126.3s126.3-56.6,126.3-126.3
		S254.9,58.8,185.2,58.8z M266,266c-21.6,21.6-50.3,33.5-80.8,33.5s-59.3-11.9-80.8-33.5c-21.6-21.6-33.5-50.3-33.5-80.8
		s11.9-59.3,33.5-80.8c21.6-21.6,50.3-33.5,80.8-33.5s59.3,11.9,80.8,33.5s33.5,50.3,33.5,80.8S287.6,244.4,266,266z"/>
	<path class="st3" d="M189.6,162.7c-1.2-1.1-2.8-1.7-4.4-1.7h-0.3c-1.6,0-3.2,0.6-4.4,1.7l-46.3,42.4c-2.6,2.4-2.8,6.5-0.4,9.2
		c2.4,2.6,6.5,2.8,9.2,0.4l42-38.5l42,38.5c1.2,1.1,2.8,1.7,4.4,1.7c1.8,0,3.5-0.7,4.8-2.1c2.4-2.6,2.2-6.8-0.4-9.2L189.6,162.7z"/>
</g>
</svg>
