<?xml version="1.0" encoding="utf-8"?>
<!-- Generator: Adobe Illustrator 21.0.0, SVG Export Plug-In . SVG Version: 6.00 Build 0)  -->
<!DOCTYPE svg PUBLIC "-//W3C//DTD SVG 1.1//EN" "http://www.w3.org/Graphics/SVG/1.1/DTD/svg11.dtd">
<svg version="1.1" id="Layer_1" xmlns="http://www.w3.org/2000/svg" xmlns:xlink="http://www.w3.org/1999/xlink" x="0px" y="0px"
	 viewBox="0 0 336 336" style="enable-background:new 0 0 336 336;" xml:space="preserve">
<style type="text/css">
	.st0{fill:none;}
	.st1{opacity:0.3;fill:#789AC2;enable-background:new    ;}
	.st2{fill:#1E5799;}
</style>
<g>
	<path class="st0" d="M209.8,59.4C197.7,55.1,185,53,172,53c-63.4,0-115,51.6-115,115s51.6,115,115,115c6.7,0,12.8,2.6,17.5,6.8
		C249,281.2,295,229.9,295,168c0-27.3-8.9-52.5-24-72.9c-6.4-0.4-12.4-3.1-17-7.7C241.6,74.8,226.3,65.1,209.8,59.4z"/>
	<path class="st1" d="M298.4,71.7c-0.6,6.1-3.2,11.7-7.6,16c-4.9,4.8-11.4,7.5-18.2,7.5c-0.1,0-0.1,0-0.2,0c-0.4,0-0.9,0-1.3,0
		c15.1,20.4,24,45.6,24,72.9c0,61.9-46,113.2-105.5,121.8c5.2,4.8,8.5,11.6,8.5,19.2c0,6.4-2.3,12.2-6.1,16.8
		C270.2,316,331,249,331,168C331,131.8,318.8,98.4,298.4,71.7z"/>
	<path class="st2" d="M172,299c-72.2,0-131-58.8-131-131S99.8,37,172,37c14.8,0,29.3,2.4,43.1,7.2c18.8,6.6,36.2,17.6,50.3,31.9
		c1.9,1.9,4.4,3,7,3h0.1c2.6,0,5.1-1,7-2.9s3-4.4,3-7c0-2.7-1-5.2-2.9-7.1c-16.2-16.5-36.3-29.2-58-36.8C205.7,19.8,189,17,172,17
		C88.7,17,21,84.7,21,168s67.7,151,151,151c5.5,0,10-4.5,10-10S177.5,299,172,299z"/>
</g>
</svg>
