<?xml version="1.0" encoding="utf-8"?>
<!-- Generator: Adobe Illustrator 21.0.0, SVG Export Plug-In . SVG Version: 6.00 Build 0)  -->
<!DOCTYPE svg PUBLIC "-//W3C//DTD SVG 1.1//EN" "http://www.w3.org/Graphics/SVG/1.1/DTD/svg11.dtd">
<svg version="1.1" id="Layer_1" xmlns="http://www.w3.org/2000/svg" xmlns:xlink="http://www.w3.org/1999/xlink" x="0px" y="0px"
	 viewBox="0 0 336 336" style="enable-background:new 0 0 336 336;" xml:space="preserve">
<style type="text/css">
	.st0{fill:none;}
	.st1{opacity:0.3;fill:#789AC2;}
	.st2{fill:#1E5799;}
</style>
<g>
	<path class="st0" d="M214.5,61.2c-11.9-4.7-24.5-7.4-37.5-8C113.7,50.4,59.9,99.7,57.1,163c-1.3,30.6,9.4,60,30.1,82.7
		s49.1,35.9,79.7,37.3c6.5,0.3,12.6,2.9,17.2,7.5c59.9-5.9,108-55.2,110.8-117c2.1-47.4-23.1-89.9-61.7-112.1
		C227.2,63.7,220.6,63.6,214.5,61.2z"/>
	<path class="st1" d="M248.8,28.9c1.9,5.8,1.7,12-0.5,17.7c-2.6,6.5-7.5,11.5-13.9,14.3c-0.4,0.2-0.8,0.3-1.2,0.5
		c38.6,22.2,63.8,64.6,61.7,112.1c-2.7,61.8-50.9,111.1-110.8,117c0.3,0.3,0.6,0.6,0.9,0.9c4.7,5.1,7.1,11.8,6.8,18.7
		c-0.3,6.4-2.9,12.1-6.9,16.5c78.7-6.4,142.4-70.6,145.9-151.5C333.6,112.8,300,57.2,248.8,28.9z"/>
	<path class="st2" d="M165.4,318.9c5.5,0.2,10.2-4,10.4-9.6s-4-10.2-9.6-10.4c-34.9-1.5-67.2-16.6-90.8-42.4
		c-23.7-25.8-35.8-59.3-34.3-94.2s16.6-67.2,42.4-90.8c25.8-23.7,59.3-35.9,94.2-34.3c14.8,0.6,29.1,3.7,42.7,9.1
		c2.5,1,5.2,0.9,7.7-0.1c2.5-1.1,4.3-3,5.3-5.5s0.9-5.2-0.1-7.7s-3-4.3-5.5-5.3c-15.7-6.2-32.2-9.8-49.2-10.5
		C95.4,13.6,24.8,78.3,21.1,161.5C17.5,244.6,82.2,315.3,165.4,318.9z"/>
</g>
</svg>
