<?xml version="1.0" encoding="utf-8"?>
<!-- Generator: Adobe Illustrator 21.0.0, SVG Export Plug-In . SVG Version: 6.00 Build 0)  -->
<!DOCTYPE svg PUBLIC "-//W3C//DTD SVG 1.1//EN" "http://www.w3.org/Graphics/SVG/1.1/DTD/svg11.dtd">
<svg version="1.1" id="Layer_1" xmlns="http://www.w3.org/2000/svg" xmlns:xlink="http://www.w3.org/1999/xlink" x="0px" y="0px"
	 viewBox="0 0 336 336" style="enable-background:new 0 0 336 336;" xml:space="preserve">
<style type="text/css">
	.st0{fill:none;}
	.st1{fill:#D1D3D4;}
	.st2{fill:#00AEEF;}
	.st3{fill:#E6E7E8;}
</style>
<g>
	<path class="st0" d="M56.5,196.1C69.3,247.3,115.2,283,168,283c6.7,0,12.8,2.6,17.5,6.8C245,281.2,291,229.9,291,168
		c0-67.8-55.2-123-123-123S45,100.2,45,168c0,4.3,0.2,8.6,0.7,12.8C50.9,184.3,54.8,189.6,56.5,196.1z"/>
	<path class="st1" d="M327,168C327,80.3,255.7,9,168,9S9,80.3,9,168c0,6.5,0.4,12.9,1.2,19.2c3.5-4.8,8.6-8.5,14.7-10
		c7.4-1.9,14.9-0.3,20.8,3.6c-0.4-4.2-0.7-8.5-0.7-12.8c0-67.8,55.2-123,123-123s123,55.2,123,123c0,61.9-46,113.2-105.5,121.8
		c5.2,4.8,8.5,11.6,8.5,19.2c0,6.4-2.3,12.2-6.1,16.8C266.2,316,327,249,327,168z"/>
	<path class="st2" d="M178,309c0-5.5-4.5-10-10-10c-60.2,0-112.4-40.7-127.1-99c-1.1-4.5-5.2-7.6-9.7-7.6c-0.8,0-1.6,0.1-2.4,0.3
		c-5.3,1.3-8.6,6.8-7.3,12.1C38.4,272.1,98.6,319,168,319C173.5,319,178,314.5,178,309z"/>
	<path class="st3" d="M185.5,289.8c-4.6-4.2-10.7-6.8-17.5-6.8c-52.8,0-98.7-35.7-111.5-86.9c-1.6-6.5-5.6-11.8-10.8-15.3
		c-5.9-3.9-13.4-5.5-20.8-3.6c-6.2,1.6-11.3,5.2-14.7,10c-4.3,6-6.1,13.8-4.1,21.5C24.7,283.1,91.3,335,168,335
		c8,0,15.1-3.6,19.9-9.2c3.8-4.5,6.1-10.4,6.1-16.8C194,301.4,190.7,294.5,185.5,289.8z M21.5,204.9c-1.3-5.3,1.9-10.8,7.3-12.1
		c0.8-0.2,1.6-0.3,2.4-0.3c4.5,0,8.6,3,9.7,7.6c14.6,58.3,66.9,99,127.1,99c5.5,0,10,4.5,10,10s-4.5,10-10,10
		C98.6,319,38.4,272.1,21.5,204.9z"/>
</g>
</svg>
