<?xml version="1.0" encoding="utf-8"?>
<!-- Generator: Adobe Illustrator 21.0.0, SVG Export Plug-In . SVG Version: 6.00 Build 0)  -->
<!DOCTYPE svg PUBLIC "-//W3C//DTD SVG 1.1//EN" "http://www.w3.org/Graphics/SVG/1.1/DTD/svg11.dtd">
<svg version="1.1" id="Layer_1" xmlns="http://www.w3.org/2000/svg" xmlns:xlink="http://www.w3.org/1999/xlink" x="0px" y="0px"
	 viewBox="0 0 336 336" style="enable-background:new 0 0 336 336;" xml:space="preserve">
<style type="text/css">
	.st0{fill:none;}
	.st1{fill:#D1D3D4;}
	.st2{fill:#00AEEF;}
	.st3{fill:#E6E7E8;}
</style>
<g>
	<path class="st0" d="M209.8,59.4C197.7,55.1,185,53,172,53c-63.4,0-115,51.6-115,115s51.6,115,115,115c6.7,0,12.8,2.6,17.5,6.8
		C249,281.2,295,229.9,295,168c0-27.3-8.9-52.5-24-72.9c-6.4-0.4-12.4-3.1-17-7.7C241.6,74.8,226.3,65.1,209.8,59.4z"/>
	<path class="st1" d="M298.4,71.7c-0.6,6.1-3.2,11.7-7.6,16c-4.9,4.8-11.4,7.5-18.2,7.5c-0.1,0-0.1,0-0.2,0c-0.4,0-0.9,0-1.3,0
		c15.1,20.4,24,45.6,24,72.9c0,61.9-46,113.2-105.5,121.8c5.2,4.8,8.5,11.6,8.5,19.2c0,6.4-2.3,12.2-6.1,16.8
		C270.2,316,331,249,331,168C331,131.8,318.8,98.4,298.4,71.7z"/>
	<path class="st2" d="M172,299c-72.2,0-131-58.8-131-131C41,95.8,99.8,37,172,37c14.8,0,29.3,2.4,43.1,7.2
		c18.8,6.6,36.2,17.6,50.3,31.9c1.9,1.9,4.4,3,7,3c0,0,0.1,0,0.1,0c2.6,0,5.1-1,7-2.9c1.9-1.9,3-4.4,3-7c0-2.7-1-5.2-2.9-7.1
		c-16.2-16.5-36.3-29.2-58-36.8C205.7,19.8,189,17,172,17C88.7,17,21,84.7,21,168s67.7,151,151,151c5.5,0,10-4.5,10-10
		S177.5,299,172,299z"/>
	<path class="st3" d="M189.5,289.8c-4.6-4.2-10.7-6.8-17.5-6.8c-63.4,0-115-51.6-115-115S108.6,53,172,53c13,0,25.7,2.1,37.8,6.4
		c16.5,5.8,31.8,15.4,44.2,28c4.6,4.6,10.6,7.3,17,7.7c0.4,0,0.9,0,1.3,0c0.1,0,0.1,0,0.2,0c6.9,0,13.3-2.6,18.2-7.5
		c4.4-4.3,7.1-9.9,7.6-16c0.1-0.8,0.1-1.5,0.1-2.3c0.1-6.9-2.6-13.5-7.5-18.4c-17.9-18.2-40.1-32.3-64.1-40.6
		C209.3,4.1,190.8,1,172,1C79.9,1,5,75.9,5,168s74.9,167,167,167c8,0,15.1-3.6,19.9-9.2c3.8-4.5,6.1-10.4,6.1-16.8
		C198,301.4,194.7,294.5,189.5,289.8z M172,319c-83.3,0-151-67.7-151-151S88.7,17,172,17c17,0,33.7,2.8,49.6,8.4
		c21.7,7.6,41.8,20.3,58,36.8c1.9,1.9,2.9,4.4,2.9,7.1c0,2.7-1.1,5.2-3,7c-1.9,1.9-4.4,2.9-7,2.9c0,0-0.1,0-0.1,0
		c-2.7,0-5.2-1.1-7-3c-14.1-14.3-31.5-25.3-50.3-31.9C201.3,39.4,186.8,37,172,37C99.8,37,41,95.8,41,168c0,72.2,58.8,131,131,131
		c5.5,0,10,4.5,10,10S177.5,319,172,319z"/>
</g>
</svg>
