<?xml version="1.0" encoding="utf-8"?>
<!-- Generator: Adobe Illustrator 21.0.0, SVG Export Plug-In . SVG Version: 6.00 Build 0)  -->
<!DOCTYPE svg PUBLIC "-//W3C//DTD SVG 1.1//EN" "http://www.w3.org/Graphics/SVG/1.1/DTD/svg11.dtd">
<svg version="1.1" id="Layer_1" xmlns="http://www.w3.org/2000/svg" xmlns:xlink="http://www.w3.org/1999/xlink" x="0px" y="0px"
	 viewBox="0 0 336 336" style="enable-background:new 0 0 336 336;" xml:space="preserve">
<style type="text/css">
	.st0{fill:none;}
	.st1{fill:#D1D3D4;}
	.st2{fill:#00AEEF;}
	.st3{fill:#E6E7E8;}
</style>
<g>
	<path class="st0" d="M214.5,61.2c-11.9-4.7-24.5-7.4-37.5-8C113.7,50.4,59.9,99.7,57.1,163c-1.3,30.6,9.4,60,30.1,82.7
		s49.1,35.9,79.7,37.3c6.5,0.3,12.6,2.9,17.2,7.5c59.9-5.9,108-55.2,110.8-117c2.1-47.4-23.1-89.9-61.7-112.1
		C227.2,63.7,220.6,63.6,214.5,61.2z"/>
	<path class="st1" d="M248.8,28.9c1.9,5.8,1.7,12-0.5,17.7c-2.6,6.5-7.5,11.5-13.9,14.3c-0.4,0.2-0.8,0.3-1.2,0.5
		c38.6,22.2,63.8,64.6,61.7,112.1c-2.7,61.8-50.9,111.1-110.8,117c0.3,0.3,0.6,0.6,0.9,0.9c4.7,5.1,7.1,11.8,6.8,18.7
		c-0.3,6.4-2.9,12.1-6.9,16.5c78.7-6.4,142.4-70.6,145.9-151.5C333.6,112.8,300,57.2,248.8,28.9z"/>
	<path class="st2" d="M165.4,318.9c5.5,0.2,10.2-4,10.4-9.6s-4-10.2-9.6-10.4c-34.9-1.5-67.2-16.6-90.8-42.4
		c-23.7-25.8-35.8-59.3-34.3-94.2c1.5-34.9,16.6-67.2,42.4-90.8c25.8-23.7,59.3-35.9,94.2-34.3c14.8,0.6,29.1,3.7,42.7,9.1
		c2.5,1,5.2,0.9,7.7-0.1c2.5-1.1,4.3-3,5.3-5.5c1-2.5,0.9-5.2-0.1-7.7s-3-4.3-5.5-5.3c-15.7-6.2-32.2-9.8-49.2-10.5
		C95.4,13.6,24.8,78.3,21.1,161.5C17.5,244.6,82.2,315.3,165.4,318.9z"/>
	<path class="st3" d="M185,291.4c-0.3-0.3-0.6-0.6-0.9-0.9c-4.6-4.6-10.6-7.2-17.2-7.5c-30.6-1.3-58.9-14.6-79.7-37.3
		s-31.5-52-30.1-82.7C59.9,99.7,113.7,50.4,177,53.2c13,0.6,25.6,3.3,37.5,8c6,2.4,12.6,2.5,18.7,0.2c0.4-0.2,0.8-0.3,1.2-0.5
		c6.4-2.7,11.3-7.8,13.9-14.3c2.3-5.7,2.5-11.9,0.5-17.7c-0.2-0.7-0.5-1.4-0.8-2.2c-2.7-6.4-7.8-11.3-14.3-13.9
		C216.4,6,198.1,2.1,179.3,1.2C87.3-2.8,9.2,68.8,5.2,160.8c-4,92,67.5,170.1,159.5,174.2c0.4,0,0.8,0,1.2,0
		c7.5,0,14.3-3.2,19.1-8.4c4-4.4,6.6-10.1,6.9-16.5C192.1,303.1,189.7,296.5,185,291.4z M21.1,161.5C24.8,78.3,95.4,13.6,178.6,17.2
		c17,0.7,33.6,4.3,49.2,10.5c2.5,1,4.4,2.9,5.5,5.3s1.1,5.2,0.1,7.7c-1,2.5-2.9,4.4-5.3,5.5c-2.5,1.1-5.2,1.1-7.7,0.1
		c-13.6-5.4-28-8.5-42.7-9.1c-34.9-1.5-68.4,10.7-94.2,34.3c-25.8,23.7-40.9,55.9-42.4,90.8c-1.5,34.9,10.7,68.4,34.3,94.2
		c23.7,25.8,55.9,40.9,90.8,42.4c5.5,0.2,9.8,4.9,9.6,10.4s-4.9,9.8-10.4,9.6C82.2,315.3,17.5,244.6,21.1,161.5z"/>
</g>
</svg>
