<?xml version="1.0" encoding="utf-8"?>
<!-- Generator: Adobe Illustrator 21.0.0, SVG Export Plug-In . SVG Version: 6.00 Build 0)  -->
<!DOCTYPE svg PUBLIC "-//W3C//DTD SVG 1.1//EN" "http://www.w3.org/Graphics/SVG/1.1/DTD/svg11.dtd">
<svg version="1.1" id="Layer_1" xmlns="http://www.w3.org/2000/svg" xmlns:xlink="http://www.w3.org/1999/xlink" x="0px" y="0px"
	 viewBox="0 0 210.6 68.2" style="enable-background:new 0 0 210.6 68.2;" xml:space="preserve">
<style type="text/css">
	.st0{fill:#FFFFFF;}
	.st1{opacity:0.6;}
</style>
<g>
	<path class="st0" d="M52,30.2c-2.2,0-4.2-0.1-6.3,0c-1.1,0-1.4-0.3-1.3-1.4c0.1-1.1,0-2.2,0-3.2c0-0.6,0.2-0.9,0.8-0.9
		c4.2,0,8.5,0,12.8,0c0,5.9,0,11.8,0,17.7c-1.3,0-2.5,0.1-3.8,0c-0.3,0-0.6-0.5-0.7-0.9c-0.2-0.9-0.3-1.9-0.5-3.1
		c-0.5,0.5-0.8,0.7-1.1,1.1c-3.2,3.6-7.3,4.2-11.8,3.6c-7.4-0.9-12.3-7.6-12.6-14.8c-0.2-3.6,0-7.1,1.4-10.5
		c2.3-5.7,7.7-9.4,13.8-9.5c4-0.1,7.9,0.6,11.1,3.2c2.4,2,3.9,4.6,4.3,8c-2.2,0-4.2,0-6.3,0c-0.2,0-0.5-0.4-0.6-0.6
		c-1.6-5.3-9.3-6.4-13.2-2.7c-2.1,1.9-3,4.4-3.4,7.1c-0.3,3.1-0.4,6.1,0.8,9c1.4,3.5,5.7,5.8,9.5,5.2C48.7,36.9,51.5,34.1,52,30.2z"
		/>
	<path class="st0" d="M2.6,29.3c2,0,4,0,6.1,0c-0.3-0.3-0.4-0.5-0.6-0.6c-1.4-1.3-1.5-3-1.1-4.7c0.3-1.5,1.2-2.5,2.7-2.9
		c0.6-0.2,1.2-0.2,1.8-0.2c2.6,0,5.3,0,7.9,0c0.6,0,0.8,0.2,0.7,0.8c0,0.7,0,1.4,0,2c0,0.5-0.2,0.7-0.6,0.7c-2.3,0-4.6,0-6.9,0
		c-0.4,0-0.9,0-1.3,0.1c-1.1,0.2-1.6,0.8-1.8,1.8c-0.1,1.1,0.4,2.2,1.4,2.6c0.8,0.3,1.6,0.4,2.5,0.5c2,0.1,3.9,0,5.9,0
		c0.2,0,0.5,0,0.7,0c0,1.1,0,2.1,0,3.3c-0.3,0-0.5,0-0.7,0c-5.3,0-10.6,0-16,0c-0.6,0-0.9-0.1-0.8-0.8C2.7,31,2.6,30.2,2.6,29.3z"/>
	<path class="st0" d="M75.4,43.3c-7.6,0-12.4-4.7-12.6-12.4c-0.1-2.5,0.3-4.9,1.4-7.2c2.6-5.4,6.8-6.7,12.2-6.5c1,0,2.1,0.2,3.1,0.5
		c3.4,0.8,5.7,3.1,7,6.2c1.9,4.3,1.8,8.7-0.1,13.1C84.5,41.3,80.9,43.3,75.4,43.3z M81.4,30.2C81.3,30.2,81.3,30.2,81.4,30.2
		c-0.2-0.9-0.2-1.7-0.3-2.5c-0.1-0.6-0.3-1.2-0.6-1.8c-0.9-2.2-2.7-3.4-5.1-3.4c-2.4,0-4.3,1.2-5.2,3.4c-1,2.6-1.1,5.3-0.3,8
		c0.8,2.7,2.8,4.2,5.4,4.2c2.6,0,4.6-1.5,5.4-4.3C81.1,32.6,81.2,31.4,81.4,30.2z"/>
	<path class="st0" d="M14.6,6.3c0,2.5,0,5,0,7.4c0,0.1,0,0.2,0,0.3c0,1.3,0.2,1.5,1.5,1c1-0.4,1.6-1.1,1.8-2.2
		c0.2-1.1-0.1-2.1-1.1-2.7c-0.1-0.1-0.3-0.3-0.3-0.4c0-1,0-2,0-3.2c0.4,0.1,0.7,0.2,1,0.3c1.4,0.7,2.4,1.8,2.9,3.3
		c0.6,2.1,0.5,4.1-0.7,5.9c-0.7,1.1-1.6,1.9-2.8,2.2c-2.1,0.6-4.2,0.6-6.2-0.1c-2.3-0.8-3.7-2.9-3.7-5.3C6.9,12,7,11,7.2,10.2
		c0.8-2.4,2.7-3.4,5-3.7C13,6.3,13.8,6.4,14.6,6.3z M12.5,12.5c0-0.7,0-1.4,0-2.1c0-0.3,0-0.5-0.5-0.5c-1.3,0.2-2.3,1.2-2.4,2.5
		c0,1.4,0.9,2.5,2.2,2.7c0.4,0.1,0.6-0.1,0.6-0.5C12.4,13.9,12.5,13.2,12.5,12.5z"/>
	<path class="st0" d="M132.3,34.7c2,0,3.8,0,5.7,0c0.3,0,0.7,0.4,0.7,0.7c0.4,1.7,1.5,2.6,3.1,2.7c1.6,0.1,3.2,0,4.7-0.2
		c0.9-0.1,1.6-0.8,1.6-1.9c0-1-0.6-1.6-1.5-1.8c-2.1-0.6-4.2-1.2-6.2-1.8c-1.3-0.4-2.6-0.7-3.9-1.3c-3.4-1.5-4.1-3.9-3.4-7.7
		c0.6-2.6,2.3-4.5,4.8-5.3c3.8-1.4,7.7-1.2,11.5,0.3c3,1.2,4,3.7,4.4,6.9c-2,0-4,0-5.9,0c-0.2,0-0.5-0.4-0.5-0.7
		c-0.4-1.5-1.5-2.3-2.9-2.4c-1.3-0.1-2.6,0-3.9,0.4c-0.6,0.2-1.1,1.1-1.2,1.8c-0.2,0.9,0.5,1.4,1.3,1.6c1.8,0.5,3.7,0.9,5.5,1.5
		c1.7,0.5,3.6,1,5.2,1.9c4.6,2.4,3.8,9,0.4,11.7c-1.8,1.4-4,1.9-6.2,2.1c-2.6,0.2-5.3,0.1-7.8-0.7C134.4,41.4,132.1,38.1,132.3,34.7
		z"/>
	<path class="st0" d="M2.7,34.6c1,0,2,0,3,0c0,1.5,0,3,0,4.5c0,0.6,0.2,0.8,0.8,0.8c4.3,0,8.6,0,12.9,0c0.3,0,0.5,0,0.9,0
		c0,1.1,0,2.2,0,3.3c0,0.1-0.2,0.2-0.3,0.3c-0.2,0.1-0.4,0-0.6,0c-4.3,0-8.6,0-12.9,0c-0.6,0-0.8,0.1-0.8,0.7c0,1.5,0,3,0,4.5
		c-1,0-2,0-3,0C2.7,44,2.7,39.4,2.7,34.6z"/>
	<path class="st0" d="M103.2,22.5c0-1.6,0-2.9,0-4.4c0.7,0,1.4-0.1,2.1,0c1.1,0.1,1.4-0.2,1.5-1.4c0-1.4,0.2-2.8,0.6-4.1
		c0.7-2.8,3.1-3.4,5.5-3.6c1.1-0.1,2.2,0,3.2,0c0.7,0,1.1,0.3,1.1,1.1c0,1,0,2.1,0,3.1c0,0.7-0.2,1.1-1,1c-0.3,0-0.6,0-0.8,0
		c-1.6,0.1-2.2,0.6-2.2,2.2c0,0.5,0,1,0,1.7c1.4,0,2.7,0,4,0c0,1.5,0,2.9,0,4.5c-0.9,0-1.8,0.1-2.7,0c-1-0.1-1.4,0.3-1.4,1.4
		c0,5.7,0,11.3,0,17c0,1.6,0,1.6-1.6,1.6c-1.5,0-3,0-4.7,0c0-0.6-0.1-1-0.1-1.5c0-5.6,0-11.2,0-16.9c0-1.6,0-1.6-1.6-1.6
		C104.5,22.5,103.9,22.5,103.2,22.5z"/>
	<path class="st0" d="M170.6,38.1c0,1.3,0,2.6,0,3.8c0,0.3-0.5,0.8-0.7,0.8c-2,0-4,0-6-0.2c-2.2-0.3-3.4-1.6-3.4-3.8
		c-0.1-4.7-0.1-9.4-0.1-14.1c0-1.8,0-1.8-1.8-1.8c-1.7,0-1.7,0-1.7-1.6c0-2.8,0-2.8,2.7-3c0.2,0,0.4-0.1,0.8-0.1c0-2.2,0-4.4,0-6.6
		c2.1,0,4.1,0,6.2,0c0,1.7,0.1,3.5,0,5.2c-0.1,1.3,0.4,1.6,1.6,1.5c2.4-0.1,2.4,0,2.4,2.4c0,0.7,0,1.3,0,2.2c-1.1,0-2,0-3,0
		c-0.7,0-1,0.2-1,1c0,4.2,0,8.3,0,12.5c0,1,0.4,1.7,1.6,1.7C168.9,37.9,169.7,38,170.6,38.1z"/>
	<path class="st0" d="M92.8,42.5c0-11.1,0-22,0-33.2c1.9,0,3.9,0,5.8,0c0.2,0,0.5,0.5,0.5,0.7c0,10.5,0,21.1,0,31.6
		c0,0.3-0.5,0.7-0.7,0.7C96.6,42.5,94.8,42.5,92.8,42.5z"/>
	<path class="st0" d="M121.2,18.1c2,0,4,0,6,0c0,8.1,0,16.1,0,24.3c-2,0-4,0-6,0C121.2,34.3,121.2,26.3,121.2,18.1z"/>
	<path class="st0" d="M127.4,14.7c-2.2,0-4.1,0-6.2,0c0-1.7,0-3.4,0-5c0-0.2,0.4-0.6,0.6-0.6c1.6-0.1,3.3-0.1,4.9,0
		c0.2,0,0.6,0.4,0.6,0.7C127.4,11.4,127.4,13,127.4,14.7z"/>
</g>
<g class="st1">
	<path class="st0" d="M198.6,1.5l-4.7-1c-4.7-1-9.5-0.4-12.2,1.5c-1.5,1.1-2.4,2.5-2.6,4.4l3,42.1c0.1,0.9-0.3,1.9-0.9,2.6
		c-0.6,0.7-1.5,1.1-2.5,1.1L68.5,55.1c-1.7,0.1-3.2-1.2-3.5-2.9l-65,2l0.4,14l65-2c0.1-0.7,0.4-1.4,0.9-2c0.6-0.7,1.5-1.1,2.4-1.1
		l121.5-3.2c2.6-0.3,5.2-2.2,7.7-5.9l12.4-39.9c0.5-2,0.3-3.9-0.9-5.8C207.4,4.8,202.5,2.4,198.6,1.5z"/>
</g>
</svg>
