<?xml version="1.0" encoding="utf-8"?>
<!-- Generator: Adobe Illustrator 21.0.0, SVG Export Plug-In . SVG Version: 6.00 Build 0)  -->
<!DOCTYPE svg PUBLIC "-//W3C//DTD SVG 1.1//EN" "http://www.w3.org/Graphics/SVG/1.1/DTD/svg11.dtd">
<svg version="1.1" id="Capa_1" xmlns="http://www.w3.org/2000/svg" xmlns:xlink="http://www.w3.org/1999/xlink" x="0px" y="0px"
	 viewBox="0 0 512 512" style="enable-background:new 0 0 512 512;" xml:space="preserve">
<style type="text/css">
	.st0{fill:#1E5799;}
</style>
<g>
	<g id="Layer_1_110_">
		<g>
			<path class="st0" d="M191.4,173.6l-31.1-29.4c3.6-6.6,5.9-14.1,5.9-22.1c0-25.5-20.7-46.2-46.2-46.2s-46.2,20.7-46.2,46.2
				s20.7,46.2,46.2,46.2c9,0,17.3-2.7,24.4-7.1l31.1,29.4C180.1,184.3,185.4,178.6,191.4,173.6z"/>
			<path class="st0" d="M323.1,169.9l41.4-69.6c4.1,1.2,8.3,2,12.7,2c25.6,0,46.2-20.7,46.2-46.2c0-25.5-20.7-46.2-46.2-46.2
				c-25.5,0-46.2,20.7-46.2,46.2c0,12.7,5.1,24.1,13.4,32.5L303.2,158C310.3,161.2,316.9,165.2,323.1,169.9z"/>
			<path class="st0" d="M465.8,228.2c-19.9,0-36.7,12.6-43.2,30.2l-57.5-5.7c0,0.4,0.1,0.8,0.1,1.3c0,7.5-0.8,14.8-2.3,21.9
				l57.5,5.7c3.5,22,22.5,39,45.5,39c25.5,0,46.2-20.7,46.2-46.2C512,248.9,491.3,228.2,465.8,228.2z"/>
			<path class="st0" d="M307.2,409.9l-12.9-56.2c-7.3,2.5-14.8,4.3-22.7,5.2l12.9,56.2c-14.8,7.7-24.9,23-24.9,40.8
				c0,25.5,20.7,46.2,46.2,46.2c25.5,0,46.2-20.7,46.2-46.2C352,430.9,332,410.6,307.2,409.9z"/>
			<path class="st0" d="M156.4,276.4l-71.6,24c-8.3-12.6-22.5-21-38.7-21C20.7,279.4,0,300,0,325.5c0,25.5,20.7,46.2,46.2,46.2
				c25.5,0,46.2-20.7,46.2-46.2c0-1.1-0.2-2-0.3-3.1l71.8-24C160.6,291.4,158.1,284.1,156.4,276.4z"/>
			<circle class="st0" cx="259.6" cy="254.1" r="79.2"/>
		</g>
	</g>
</g>
</svg>
