<?xml version="1.0" encoding="utf-8"?>
<!-- Generator: Adobe Illustrator 21.0.0, SVG Export Plug-In . SVG Version: 6.00 Build 0)  -->
<!DOCTYPE svg PUBLIC "-//W3C//DTD SVG 1.1//EN" "http://www.w3.org/Graphics/SVG/1.1/DTD/svg11.dtd">
<svg version="1.1" id="Capa_1" xmlns="http://www.w3.org/2000/svg" xmlns:xlink="http://www.w3.org/1999/xlink" x="0px" y="0px"
	 viewBox="0 0 346.8 512" style="enable-background:new 0 0 346.8 512;" xml:space="preserve">
<style type="text/css">
	.st0{opacity:0.35;fill:#FFFFFF;enable-background:new    ;}
	.st1{opacity:0.65;fill:#FFFFFF;enable-background:new    ;}
</style>
<path class="st0" d="M240.9,285.4c2.1-6.7,2.8-13.8,1.6-20.8l-113.3,6.2c0.9,3,1.8,5.9,2.8,8.8c-15.4,65.5-27.1,131.6-35.7,198.4
	c-5.9,45.6,65.6,45,71.4,0c5.2-40.3,12-80.3,20.1-120c16.2,46.2,38.7,90,68.1,129.4c27.2,36.4,89.2,0.9,61.7-36
	C280.2,401.3,255.6,345.3,240.9,285.4z"/>
<path class="st1" d="M26,139.3c21.1,17.8,48.9,21.6,75.6,19.6c13.2,36.5,16.5,75.3,27.3,112.4l113.4-6.3c-0.4-2.1-1-4.3-1.8-6.4
	c-15.3-41.9-17.2-86.9-32.5-128.8c-8.8-24.2-29.5-41.7-54.7-40.9c13.5-8.2,22.5-23.1,22.5-40c0-0.1,0-0.2,0-0.3l111-1.2
	c-12.5,56.7,58.9,60.1,59.9,45.8c1.2-17.5-26.4-60.3-43.1-60.8c-7.8-0.2-67.7,2.5-129.1,5.5C169.6,17.3,151.1,2,128.9,2
	c-23.7,0-43.3,17.6-46.4,40.5c-13.4,0.7-24.8,1.2-33.3,1.7c-5-7.1-14-11.9-22.1-11.9c-15.5,0-24.2,11.9-26,26
	C-2.6,87.3,2.4,119.4,26,139.3z M52.2,50L82,49.7c0.4,25.5,21,46,46.5,46.2c-4.6,2.6-9,5.9-12.8,9.8c-0.7,0-1.4,0-2.1,0.1
	c-18.1,2.4-38.4,4.3-53.7-5.5C50,94,51.3,72,53,58.2C53.4,55.4,53.1,52.6,52.2,50z"/>
</svg>
