<?xml version="1.0" encoding="utf-8"?>
<!-- Generator: Adobe Illustrator 21.0.0, SVG Export Plug-In . SVG Version: 6.00 Build 0)  -->
<!DOCTYPE svg PUBLIC "-//W3C//DTD SVG 1.1//EN" "http://www.w3.org/Graphics/SVG/1.1/DTD/svg11.dtd">
<svg version="1.1" id="Capa_1" xmlns="http://www.w3.org/2000/svg" xmlns:xlink="http://www.w3.org/1999/xlink" x="0px" y="0px"
	 viewBox="0 0 222 512.2" style="enable-background:new 0 0 222 512.2;" xml:space="preserve">
<style type="text/css">
	.st0{fill:#FFFFFF;}
</style>
<g>
	<path class="st0" d="M207,480.2h-29.6L134,330.7c8.3-6.9,12.1-18.4,8.6-29.4l-17.7-56.5l-10.7-99.9c4.6-14.6-2.6-30.6-17.1-36.7
		c-15.3-6.4-32.9,0.8-39.2,16.1l-55.5,133c-0.6,1.5-1.2,3-1.6,4.6c0,0.1-0.1,0.3-0.1,0.4c-0.1,0.3-0.1,0.6-0.2,1
		c-0.1,0.3-0.1,0.6-0.2,0.9c0,0.2-0.1,0.3-0.1,0.5C0.1,266.4,0,268,0,269.6v212.6c0,16.6,13.4,30,30,30c2.2,0,4.3-0.2,6.3-0.7h48
		c11,0,20-9,20-20s-9-20-20-20H60V275.2l9.7-23.2c0.2,0.9,0.4,1.9,0.7,2.8l1.1,3.6c0,0.1,0.1,0.2,0.1,0.4l18.5,59
		c3.3,10.6,12.4,17.7,22.7,19l44.1,151.7c-1,2-1.6,4.3-1.6,6.7c0,8.3,6.7,15,15,15H207c8.3,0,15-6.7,15-15S215.3,480.2,207,480.2z"
		/>
	<circle class="st0" cx="143.4" cy="52.9" r="52.9"/>
</g>
</svg>
