<?xml version="1.0" encoding="utf-8"?>
<!-- Generator: Adobe Illustrator 21.0.0, SVG Export Plug-In . SVG Version: 6.00 Build 0)  -->
<!DOCTYPE svg PUBLIC "-//W3C//DTD SVG 1.1//EN" "http://www.w3.org/Graphics/SVG/1.1/DTD/svg11.dtd">
<svg version="1.1" id="Layer_1" xmlns="http://www.w3.org/2000/svg" xmlns:xlink="http://www.w3.org/1999/xlink" x="0px" y="0px"
	 viewBox="0 0 315.3 512" style="enable-background:new 0 0 315.3 512;" xml:space="preserve">
<style type="text/css">
	.st0{fill:#FFFFFF;}
</style>
<g>
	<path class="st0" d="M158.4,128c35.4,0,64-28.6,64-64s-28.6-64-64-64s-64,28.6-64,64S123.1,128,158.4,128z"/>
	<path class="st0" d="M267.2,211.2c-19.2-51.2,6.4-83.2,19.2-96c9.6-12.8,38.4-38.4,25.6-57.6c-6.4-16-54.4-3.2-64,16
		c-6.4,9.6-6.4,38.4-38.4,60.8c-25.6,16-51.2,16-51.2,16c-9.6,19.2-3.2,35.2,6.4,51.2c16,28.8,19.2,57.6,22.4,89.6
		c3.2,41.6-16,76.8-73.6,102.4c-25.6,9.6-41.6,28.8-32,60.8c0,0,64-9.6,99.2-38.4c48-38.4,57.6-73.6,57.6-73.6s3.2,22.4,0,60.8
		c-3.2,32-6.4,48-12.8,70.4c-6.4,22.4,9.6,38.4,28.8,38.4s32-12.8,32-32l9.6-60.8c9.6-67.2,0-137.6-25.6-201.6
		C270.4,214.4,267.2,214.4,267.2,211.2z"/>
	<path class="st0" d="M30.4,268.8l118.4-118.4l-22.4-9.6L4.8,256c0,0-12.8,22.4,3.2,54.4c16,32,51.2,9.6,51.2,9.6
		c12.8-6.4,6.4-12.8,0-19.2C52.8,294.4,30.4,268.8,30.4,268.8z"/>
</g>
</svg>
