<?xml version="1.0" encoding="utf-8"?>
<!-- Generator: Adobe Illustrator 21.0.0, SVG Export Plug-In . SVG Version: 6.00 Build 0)  -->
<!DOCTYPE svg PUBLIC "-//W3C//DTD SVG 1.1//EN" "http://www.w3.org/Graphics/SVG/1.1/DTD/svg11.dtd">
<svg version="1.1" id="Layer_1" xmlns="http://www.w3.org/2000/svg" xmlns:xlink="http://www.w3.org/1999/xlink" x="0px" y="0px"
	 viewBox="0 0 512 392.5" style="enable-background:new 0 0 512 392.5;" xml:space="preserve">
<style type="text/css">
	.st0{fill:#FFFFFF;}
</style>
<g>
	<path class="st0" d="M119.5,290.1c-28.2,0-51.2,23-51.2,51.2s23,51.2,51.2,51.2s51.2-23,51.2-51.2
		C170.7,313.1,147.7,290.1,119.5,290.1z M119.5,371.1c-16.4,0-29.7-13.3-29.7-29.7s13.3-29.7,29.7-29.7c16.4,0,29.7,13.3,29.7,29.7
		S135.9,371.1,119.5,371.1z"/>
	<path class="st0" d="M392.5,290.1c-28.2,0-51.2,23-51.2,51.2s23,51.2,51.2,51.2s51.2-23,51.2-51.2
		C443.7,313.1,420.8,290.1,392.5,290.1z M392.5,371.1c-16.4,0-29.7-13.3-29.7-29.7s13.3-29.7,29.7-29.7s29.7,13.3,29.7,29.7
		S409,371.1,392.5,371.1z"/>
	<path class="st0" d="M511.3,286.8l-42.7-102.4c-1.3-3.2-4.4-5.2-7.9-5.2l-52.8,0.4l0.7-102.7l18-0.1h17.1c4.7,0,8.5-3.8,8.5-8.5
		V8.5c0-4.7-3.8-8.5-8.5-8.5H196.3c-28.2,0-51.2,23-51.2,51.2c0,4.7,3.8,8.5,8.5,8.5l35.1-0.1L106,212.9l-25.8,0.6
		C35.5,216.1,0,253.3,0,298.7v34.1c0,1.6,0.4,3,1.1,4.3c-0.7,1.3-1.1,2.7-1.1,4.3c0,4.7,3.8,8.5,8.5,8.5h34.1c4.7,0,8.5-3.8,8.5-8.5
		c0-37.6,30.6-68.3,68.3-68.3s68.3,30.6,68.3,68.3c0,4.7,3.8,8.5,8.5,8.5h119.5c4.7,0,8.5-3.8,8.5-8.5c0-37.6,30.6-68.3,68.3-68.3
		s68.3,30.6,68.3,68.3c0,4.7,3.8,8.5,8.5,8.5h34.1c4.7,0,8.5-3.8,8.5-8.5v-51.2C512,289,511.8,287.9,511.3,286.8z M385.7,179.9
		l-18.7,3.1h0l-64.3,40.2c-1.6,1-2.8,2.5-3.5,4.2l-23.5,62.7h-40.3l-30.3-54.6l21.5-10.8l4.7,9.4c1.5,3,4.5,4.7,7.6,4.7
		c1.3,0,2.6-0.3,3.8-0.9c4.2-2.1,5.9-7.2,3.8-11.5l-17.1-34.1c-2.1-4.2-7.2-5.9-11.5-3.8c-4.2,2.1-5.9,7.2-3.8,11.5l4.7,9.4
		l-22.2,11.1l-1.6-2.9c-1.5-2.7-4.4-4.4-7.5-4.4l-60.4-0.4l82-152.7l120.1-0.5c10.8,9.9,19.2,15,37.5,16.6l20.1,0.6L385.7,179.9z"/>
</g>
</svg>
