<?xml version="1.0" encoding="utf-8"?>
<!-- Generator: Adobe Illustrator 21.0.0, SVG Export Plug-In . SVG Version: 6.00 Build 0)  -->
<!DOCTYPE svg PUBLIC "-//W3C//DTD SVG 1.1//EN" "http://www.w3.org/Graphics/SVG/1.1/DTD/svg11.dtd">
<svg version="1.1" id="Capa_1" xmlns="http://www.w3.org/2000/svg" xmlns:xlink="http://www.w3.org/1999/xlink" x="0px" y="0px"
	 viewBox="0 0 346.8 512" style="enable-background:new 0 0 346.8 512;" xml:space="preserve">
<style type="text/css">
	.st0{fill:#FFFFFF;}
</style>
<g>
	<path class="st0" d="M303.6,30.4c-7.8-0.2-67.7,2.5-129.1,5.5C169.6,15.3,151.1,0,128.9,0c-23.7,0-43.3,17.6-46.4,40.5
		c-13.4,0.7-24.8,1.2-33.3,1.7c-5-7.1-14-11.9-22.1-11.9c-15.5,0-24.2,11.9-26,26c-3.7,29.1,1.3,61.2,24.9,81.1
		c21.1,17.8,48.9,21.6,75.6,19.6c14.4,39.9,17,82.5,30.5,122.6c-15.4,65.5-27.1,131.6-35.7,198.4c-5.9,45.6,65.6,45,71.4,0
		c5.2-40.3,12-80.3,20.1-120c16.2,46.2,38.7,90,68.1,129.4c27.2,36.4,89.2,0.9,61.7-36c-37.4-50.1-62-106-76.7-166
		c2.8-9.2,3.1-19.1-0.4-28.6c-15.3-41.9-17.2-86.9-32.5-128.8c-8.8-24.2-29.5-41.7-54.7-40.9c13.5-8.2,22.5-23.1,22.5-40
		c0-0.1,0-0.2,0-0.3l111-1.2c-12.5,56.7,58.9,60.1,59.9,45.8C348,73.7,320.4,30.9,303.6,30.4z M115.7,103.7c-0.7,0-1.4,0-2.1,0.1
		c-18.1,2.4-38.4,4.3-53.7-5.5C50,92,51.3,70,53,56.2c0.4-2.9,0-5.6-0.8-8.2L82,47.7c0.4,25.5,21,46,46.5,46.2
		C123.9,96.5,119.6,99.8,115.7,103.7z"/>
</g>
</svg>
