<?xml version="1.0" encoding="utf-8"?>
<!-- Generator: Adobe Illustrator 21.0.0, SVG Export Plug-In . SVG Version: 6.00 Build 0)  -->
<!DOCTYPE svg PUBLIC "-//W3C//DTD SVG 1.1//EN" "http://www.w3.org/Graphics/SVG/1.1/DTD/svg11.dtd">
<svg version="1.1" id="Capa_1" xmlns="http://www.w3.org/2000/svg" xmlns:xlink="http://www.w3.org/1999/xlink" x="0px" y="0px"
	 viewBox="0 0 427.8 512" style="enable-background:new 0 0 427.8 512;" xml:space="preserve">
<style type="text/css">
	.st0{fill:#FFFFFF;}
</style>
<g>
	<g>
		<circle class="st0" cx="234.3" cy="53.9" r="53.9"/>
		<path class="st0" d="M388.3,476.3c-22.4,1.8-41.1,12.4-41.1,12.4L208.3,301.4c7.1-6.7,11.1-16.8,8.2-29
			c-8.8-37.1-13.2-74.7-16.6-112.5c9.7-16.4,3.8-38.5-8.9-52.2c-4.7-6.3-11.5-10.3-18.8-12.1c-20.8-7-41.1,3.3-54.4,21
			c-37,49.4-74,98.7-111.1,148.1c-10.4,13.9-7.9,33,1.1,47.4c0,0.5-0.1,1-0.1,1.4c0,56.2,0,112.4,0,168.7c0,39.8,61.7,39.8,61.7,0
			c0-51.7,0-103.4,0-155.1c6.6-4,12.5-9.6,17.5-16.1c19.8-26.4,39.5-52.7,59.3-79.1c2.8,19.1,6.2,38.1,10.7,57
			c5.3,22.3,27.2,26.2,43.1,18.3l138.8,200h49.4C388.3,507.1,410.7,474.4,388.3,476.3z"/>
		<circle class="st0" cx="406" cy="441" r="21.8"/>
	</g>
</g>
</svg>
