<?xml version="1.0" encoding="utf-8"?>
<!-- Generator: Adobe Illustrator 21.0.0, SVG Export Plug-In . SVG Version: 6.00 Build 0)  -->
<!DOCTYPE svg PUBLIC "-//W3C//DTD SVG 1.1//EN" "http://www.w3.org/Graphics/SVG/1.1/DTD/svg11.dtd">
<svg version="1.1" id="Layer_1" xmlns="http://www.w3.org/2000/svg" xmlns:xlink="http://www.w3.org/1999/xlink" x="0px" y="0px"
	 viewBox="0 0 681.1 366.5" style="enable-background:new 0 0 681.1 366.5;" xml:space="preserve">
<style type="text/css">
	.st0{opacity:0.3;fill:#789AC2;enable-background:new    ;}
	.st1{fill:#1E5799;}
	.st2{fill:#789AC2;}
</style>
<path class="st0" d="M79.5,33.1c5.8,0,11.2,2.2,15.2,5.9V0H63.3v38.9c4-3.6,9.4-5.9,15.2-5.9L79.5,33.1L79.5,33.1z"/>
<path class="st0" d="M137.4,54.4c5.8,0,11.2,2.2,15.2,5.9V0h-31.3v60.3c4-3.6,9.4-5.9,15.2-5.9C136.5,54.4,137.4,54.4,137.4,54.4z"
	/>
<path class="st0" d="M195.3,49.1c5.8,0,11.2,2.2,15.2,5.9V0h-31.3v54.9c4-3.6,9.4-5.9,15.2-5.9L195.3,49.1L195.3,49.1z"/>
<path class="st0" d="M253.2,129.6c5.8,0,11.2,2.2,15.2,5.9V0H237v135.5c4-3.6,9.4-5.9,15.2-5.9H253.2z"/>
<path class="st0" d="M311.1,134.8c5.8,0,11.2,2.2,15.2,5.9V0H295v140.7c4-3.6,9.4-5.9,15.2-5.9H311.1z"/>
<path class="st0" d="M369,103.1c5.8,0,11.2,2.2,15.2,5.9V0h-31.3v108.9c4-3.6,9.4-5.9,15.2-5.9L369,103.1L369,103.1z"/>
<path class="st0" d="M426.8,40c5.8,0,11.2,2.2,15.2,5.9V0h-31.3v45.9c4-3.6,9.4-5.9,15.2-5.9H426.8z"/>
<path class="st0" d="M484.7,208.7c5.8,0,11.2,2.2,15.2,5.9V0h-31.3v214.6c4-3.6,9.4-5.9,15.2-5.9L484.7,208.7L484.7,208.7z"/>
<path class="st0" d="M542.6,208.7c5.8,0,11.2,2.2,15.2,5.9V0h-31.3v214.6c4-3.6,9.4-5.9,15.2-5.9L542.6,208.7L542.6,208.7z"/>
<path class="st0" d="M600.5,114.5c5.8,0,11.2,2.2,15.2,5.9V0h-31.3v120.4c4-3.6,9.4-5.9,15.2-5.9H600.5z"/>
<path class="st0" d="M658.4,214.5c5.8,0,11.2,2.2,15.2,5.9V0h-31.3v220.3c4-3.6,9.4-5.9,15.2-5.9L658.4,214.5L658.4,214.5z"/>
<path class="st1" d="M87.2,306.7V55.8c0-4.2-3.5-7.7-7.7-7.7h-0.9c-4.2,0-7.7,3.5-7.7,7.7v250.9c0,4.2,3.5,7.7,7.7,7.7h0.9
	C83.7,314.4,87.2,310.9,87.2,306.7z"/>
<path class="st1" d="M137.4,314.4c4.2,0,7.7-3.5,7.7-7.7V77.1c0-4.2-3.5-7.7-7.7-7.7h-0.9c-4.2,0-7.7,3.5-7.7,7.7v229.6
	c0,4.2,3.5,7.7,7.7,7.7L137.4,314.4L137.4,314.4z"/>
<path class="st1" d="M203,306.7V71.8c0-4.2-3.5-7.7-7.7-7.7h-0.9c-4.2,0-7.7,3.5-7.7,7.7v234.9c0,4.2,3.5,7.7,7.7,7.7h0.9
	C199.5,314.4,203,310.9,203,306.7z"/>
<path class="st1" d="M260.9,306.7V152.3c0-4.2-3.5-7.7-7.7-7.7h-0.9c-4.2,0-7.7,3.5-7.7,7.7v154.4c0,4.2,3.5,7.7,7.7,7.7h0.9
	C257.4,314.4,260.9,310.9,260.9,306.7z"/>
<path class="st1" d="M311.1,314.4c4.2,0,7.7-3.5,7.7-7.7V157.5c0-4.2-3.5-7.7-7.7-7.7h-0.9c-4.2,0-7.7,3.5-7.7,7.7v149.2
	c0,4.2,3.5,7.7,7.7,7.7L311.1,314.4L311.1,314.4z"/>
<path class="st1" d="M376.7,306.7V125.8c0-4.2-3.5-7.7-7.7-7.7h-1c-4.2,0-7.7,3.5-7.7,7.7v180.9c0,4.2,3.5,7.7,7.7,7.7h0.9
	C373.2,314.4,376.7,310.9,376.7,306.7z"/>
<path class="st1" d="M434.6,306.7v-244c0-4.2-3.5-7.7-7.7-7.7H426c-4.2,0-7.7,3.5-7.7,7.7v244c0,4.2,3.5,7.7,7.7,7.7h0.9
	C431.1,314.4,434.6,310.9,434.6,306.7z"/>
<path class="st1" d="M492.5,306.7v-75.3c0-4.2-3.5-7.7-7.7-7.7h-0.9c-4.2,0-7.7,3.5-7.7,7.7v75.3c0,4.2,3.5,7.7,7.7,7.7h0.9
	C489,314.4,492.5,310.9,492.5,306.7z"/>
<path class="st1" d="M550.3,306.7v-75.3c0-4.2-3.5-7.7-7.7-7.7h-0.9c-4.2,0-7.7,3.5-7.7,7.7v75.3c0,4.2,3.5,7.7,7.7,7.7h0.9
	C546.9,314.4,550.3,310.9,550.3,306.7z"/>
<path class="st1" d="M600.5,314.4c4.2,0,7.7-3.5,7.7-7.7V137.2c0-4.2-3.5-7.7-7.7-7.7h-0.9c-4.2,0-7.7,3.5-7.7,7.7v169.5
	c0,4.2,3.5,7.7,7.7,7.7L600.5,314.4L600.5,314.4z"/>
<path class="st1" d="M666.1,306.7v-69.5c0-4.2-3.5-7.7-7.7-7.7h-0.9c-4.2,0-7.7,3.5-7.7,7.7v69.5c0,4.2,3.5,7.7,7.7,7.7h0.9
	C662.7,314.4,666.1,310.9,666.1,306.7z"/>
<polygon class="st1" points="645.4,348.4 645.9,350.4 649.3,348.6 649.4,348.6 649.4,365.7 651.9,365.7 651.9,346.2 649.7,346.2 "/>
<polygon class="st1" points="659.4,348.3 668.9,348.3 668.9,348.4 660.5,365.7 663.2,365.7 671.7,347.9 671.7,346.2 659.4,346.2 "/>
<polygon class="st1" points="587.5,348.4 588,350.4 591.4,348.6 591.5,348.6 591.5,365.7 594,365.7 594,346.2 591.8,346.2 "/>
<path class="st1" d="M608.3,352.8c-2.2,0-3.8,1-4.7,2.2h-0.1c0.5-3.2,2.6-6.2,6.8-6.9c0.8-0.1,1.4-0.1,2-0.1v-2.2
	c-0.5,0-1.1,0-1.9,0.1c-2.5,0.3-4.6,1.3-6.2,2.9c-1.9,1.9-3.3,5-3.3,8.8c0,5.1,2.7,8.3,6.9,8.3c4,0,6.5-3.3,6.5-6.9
	C614.2,355.3,611.8,352.8,608.3,352.8z M607.7,363.9c-2.8,0-4.2-2.4-4.3-5.6c0-0.5,0.1-0.9,0.3-1.2c0.7-1.4,2.2-2.4,3.8-2.4
	c2.4,0,4,1.7,4,4.5S610,363.9,607.7,363.9z"/>
<polygon class="st1" points="529.6,348.4 530.1,350.4 533.5,348.6 533.6,348.6 533.6,365.7 536.1,365.7 536.1,346.2 533.9,346.2 "/>
<path class="st1" d="M552.5,354.3c-1.2-0.7-2.7-1-4.2-1c-0.7,0-1.1,0.1-1.6,0.1l0.8-5h7.4v-2.2h-9.3l-1.3,9.4
	c0.7-0.1,1.6-0.2,2.7-0.2c3.9,0,5.6,1.8,5.6,4.3c0,2.6-2.1,4.2-4.6,4.2c-1.8,0-3.4-0.6-4.2-1.1l-0.7,2c0.9,0.6,2.7,1.2,4.9,1.2
	c4.2,0,7.3-2.8,7.3-6.7C555.3,356.9,554,355.2,552.5,354.3z"/>
<polygon class="st1" points="471.7,348.4 472.2,350.4 475.6,348.6 475.7,348.6 475.7,365.7 478.2,365.7 478.2,346.2 476,346.2 "/>
<path class="st1" d="M496,346.2h-2.8l-8.7,12.4v1.7h9.1v5.3h2.5v-5.3h2.7v-2.1H496V346.2z M493.5,351.8v6.5h-6.4v-0.1l4.8-6.6
	c0.5-0.9,1-1.7,1.6-2.9h0.1C493.5,349.7,493.5,350.7,493.5,351.8z"/>
<polygon class="st1" points="413.8,348.4 414.4,350.4 417.7,348.6 417.8,348.6 417.8,365.7 420.4,365.7 420.4,346.2 418.1,346.2 "/>
<path class="st1" d="M435.2,355.1L435.2,355.1c2.4-0.9,3.6-2.6,3.6-4.7c0-2.4-1.7-4.6-5.6-4.6c-2.1,0-4.1,0.8-5.1,1.5l0.7,1.9
	c0.8-0.6,2.3-1.3,3.9-1.3c2.4,0,3.4,1.4,3.4,2.9c0,2.3-2.4,3.3-4.3,3.3h-1.5v2h1.5c2.5,0,5,1.2,5,3.9c0,1.6-1,3.8-4.4,3.8
	c-1.8,0-3.6-0.8-4.3-1.2l-0.7,2c1,0.6,2.9,1.3,5.1,1.3c4.7,0,7.1-2.7,7.1-5.8C439.5,357.4,437.6,355.6,435.2,355.1z"/>
<polygon class="st1" points="355.9,348.4 356.5,350.4 359.8,348.6 359.9,348.6 359.9,365.7 362.5,365.7 362.5,346.2 360.2,346.2 "/>
<path class="st1" d="M373.3,363.4l1.6-1.4c4.1-4,6.7-6.9,6.7-10.5c0-2.8-1.8-5.7-6-5.7c-2.2,0-4.2,0.8-5.5,2l0.8,1.9
	c0.9-0.8,2.4-1.7,4.1-1.7c2.9,0,3.9,1.8,3.9,3.8c0,2.9-2.3,5.5-7.3,10.2l-2.1,2v1.6H382v-2.2L373.3,363.4L373.3,363.4z"/>
<polygon class="st1" points="298,348.4 298.6,350.4 301.9,348.6 302,348.6 302,365.7 304.6,365.7 304.6,346.2 302.3,346.2 "/>
<polygon class="st1" points="313.4,348.4 313.9,350.4 317.3,348.6 317.4,348.6 317.4,365.7 319.9,365.7 319.9,346.2 317.7,346.2 "/>
<polygon class="st1" points="240.1,348.4 240.7,350.4 244,348.6 244.1,348.6 244.1,365.7 246.7,365.7 246.7,346.2 244.4,346.2 "/>
<path class="st1" d="M260.3,345.8c-4,0-6.8,3.6-6.8,10.1c0.1,6.4,2.6,10,6.4,10c4.3,0,6.8-3.7,6.8-10.3
	C266.7,349.5,264.4,345.8,260.3,345.8z M260.1,363.9c-2.4,0-4-2.9-4-7.9c0-5.3,1.7-8.1,4-8.1c2.7,0,4,3.1,4,7.9
	C264.1,360.8,262.8,363.9,260.1,363.9z"/>
<path class="st1" d="M187,345.8c-4,0-6.8,3.6-6.8,10.1c0.1,6.4,2.6,10,6.4,10c4.3,0,6.8-3.7,6.8-10.3
	C193.4,349.5,191.1,345.8,187,345.8z M186.8,363.9c-2.4,0-4-2.9-4-7.9c0-5.3,1.7-8.1,4-8.1c2.7,0,4,3.1,4,7.9
	C190.8,360.8,189.5,363.9,186.8,363.9z"/>
<path class="st1" d="M202.4,345.8c-4,0-6.7,3.2-6.7,6.9c0,3.3,2.2,6,5.8,6c2,0,3.5-0.8,4.6-2.1h0.1c-0.4,2.3-1.3,4-2.6,5.2
	c-1.1,1-2.5,1.7-4.1,1.9c-0.9,0.1-1.6,0.2-2.1,0.1v2.2c0.6,0,1.5,0,2.4-0.1c2.1-0.2,4.2-1.1,5.7-2.6c1.9-1.9,3.4-4.9,3.4-9.1
	C208.9,349.1,206.4,345.8,202.4,345.8z M206,354.7c-0.7,1.2-2.1,2-3.8,2c-2.3,0-3.8-1.7-3.8-4.1c0-2.8,1.6-4.7,3.8-4.7
	c2.8,0,4,2.5,4,5.9C206.2,354.1,206.1,354.4,206,354.7z"/>
<path class="st1" d="M129.1,345.8c-4,0-6.8,3.6-6.8,10.1c0.1,6.4,2.6,10,6.4,10c4.3,0,6.8-3.7,6.8-10.3
	C135.5,349.5,133.2,345.8,129.1,345.8z M128.9,363.9c-2.4,0-4-2.9-4-7.9c0-5.3,1.7-8.1,4-8.1c2.7,0,4,3.1,4,7.9
	C132.9,360.8,131.6,363.9,128.9,363.9z"/>
<path class="st1" d="M147,355.3L147,355.3c2.4-1.2,3.2-3,3.2-4.6c0-2.4-1.9-4.8-5.7-4.8c-3.4,0-6,2.1-6,5.2c0,1.7,0.9,3.4,3.1,4.4
	v0.1c-2.4,1-3.9,2.8-3.9,5.2c0,2.9,2.5,5.3,6.5,5.3c3.7,0,6.6-2.3,6.6-5.7C150.9,357.9,149.4,356.2,147,355.3z M141,350.8
	c0-1.7,1.2-3.1,3.4-3.1c2.4,0,3.3,1.6,3.3,3.2c0,1.8-1.3,3-3,3.5C142.4,353.8,141,352.8,141,350.8z M144.3,364.1
	c-2.5,0-4-1.7-3.9-3.7c0-1.9,1.2-3.4,3.5-4c2.6,0.8,4.3,1.9,4.3,4.3C148.2,362.6,146.7,364.1,144.3,364.1z"/>
<path class="st1" d="M71.2,345.8c-4,0-6.8,3.6-6.8,10.1c0.1,6.4,2.6,10,6.4,10c4.3,0,6.8-3.7,6.8-10.3
	C77.6,349.5,75.3,345.8,71.2,345.8z M71,363.9c-2.4,0-4-2.9-4-7.9c0-5.3,1.7-8.1,4-8.1c2.7,0,4,3.1,4,7.9
	C75,360.8,73.7,363.9,71,363.9z"/>
<polygon class="st1" points="80.4,348.3 90,348.3 90,348.4 81.5,365.7 84.2,365.7 92.7,347.9 92.7,346.2 80.4,346.2 "/>
<path class="st2" d="M20.4,312.1c-4,0-6.8,3.6-6.8,10.1c0.1,6.4,2.6,10,6.4,10c4.3,0,6.8-3.7,6.8-10.3
	C26.9,315.7,24.5,312.1,20.4,312.1z M20.2,330.2c-2.4,0-4-2.9-4-7.9c0-5.3,1.7-8.1,4-8.1c2.7,0,4,3.1,4,7.9
	C24.2,327,22.9,330.2,20.2,330.2z"/>
<polygon class="st2" points="3.2,265 3.7,267 7.1,265.2 7.1,265.2 7.1,282.2 9.7,282.2 9.7,262.7 7.4,262.7 "/>
<path class="st2" d="M33.6,267.4c-1.4,0-2.3,0.4-3.2,1c-0.6,0.4-1.2,1.1-1.6,1.9h-0.1c-0.6-1.7-2.1-2.9-4.1-2.9
	c-2.4,0-3.8,1.3-4.6,2.7h-0.1l-0.1-2.3h-2.3c0.1,1.2,0.1,2.4,0.1,3.9v10.6h2.6v-8.8c0-0.5,0.1-0.9,0.2-1.3c0.4-1.3,1.6-2.6,3.3-2.6
	c2,0,3,1.7,3,4v8.7h2.6v-9c0-0.5,0.1-1,0.2-1.3c0.5-1.3,1.6-2.4,3.1-2.4c2.1,0,3.1,1.7,3.1,4.5v8.2h2.6v-8.5
	C38.4,268.6,35.5,267.4,33.6,267.4z"/>
<path class="st2" d="M13.8,230.4H5.1v-0.1l1.6-1.4c4.1-4,6.7-6.9,6.7-10.5c0-2.8-1.8-5.7-6-5.7c-2.2,0-4.2,0.8-5.5,2l0.8,1.9
	c0.9-0.8,2.4-1.7,4.1-1.7c2.9,0,3.9,1.8,3.9,3.8c0,2.9-2.3,5.5-7.3,10.2l-2.1,2v1.6h12.5C13.8,232.5,13.8,230.4,13.8,230.4z"/>
<path class="st2" d="M33.6,217.7c-1.4,0-2.3,0.4-3.2,1c-0.6,0.4-1.2,1.1-1.6,1.9h-0.1c-0.6-1.7-2.1-2.9-4.1-2.9
	c-2.4,0-3.8,1.3-4.6,2.7h-0.1l-0.1-2.3h-2.3c0.1,1.2,0.1,2.4,0.1,3.9v10.6h2.6v-8.8c0-0.5,0.1-0.9,0.2-1.3c0.4-1.3,1.6-2.6,3.3-2.6
	c2,0,3,1.7,3,4v8.7h2.6v-9c0-0.5,0.1-1,0.2-1.3c0.5-1.3,1.6-2.4,3.1-2.4c2.1,0,3.1,1.7,3.1,4.5v8.2h2.6V224
	C38.4,219,35.5,217.7,33.6,217.7z"/>
<path class="st2" d="M13.5,177.4c0-2.7-2-4.5-4.3-5v-0.1c2.4-0.9,3.6-2.6,3.6-4.6c0-2.4-1.7-4.6-5.6-4.6c-2.1,0-4.1,0.8-5.1,1.5
	l0.7,1.9c0.8-0.6,2.3-1.3,3.9-1.3c2.4,0,3.4,1.4,3.4,2.9c0,2.3-2.4,3.3-4.3,3.3H4.2v2h1.5c2.5,0,5,1.2,5,3.9c0,1.6-1,3.8-4.4,3.8
	c-1.8,0-3.6-0.8-4.3-1.2l-0.7,2c1,0.6,2.9,1.3,5.1,1.3C11.1,183.2,13.5,180.5,13.5,177.4z"/>
<path class="st2" d="M33.6,168.1c-1.4,0-2.3,0.4-3.2,1c-0.6,0.4-1.2,1.1-1.6,1.9h-0.1c-0.6-1.7-2.1-2.9-4.1-2.9
	c-2.4,0-3.8,1.3-4.6,2.7h-0.1l-0.1-2.3h-2.3c0.1,1.2,0.1,2.4,0.1,3.9V183h2.6v-8.8c0-0.5,0.1-0.9,0.2-1.3c0.4-1.3,1.6-2.6,3.3-2.6
	c2,0,3,1.7,3,4v8.7h2.6v-9c0-0.5,0.1-1,0.2-1.3c0.5-1.3,1.6-2.4,3.1-2.4c2.1,0,3.1,1.7,3.1,4.5v8.2h2.6v-8.5
	C38.4,169.3,35.5,168.1,33.6,168.1z"/>
<path class="st2" d="M9.6,133.2H12v-5.3h2.7v-2.1H12v-12.1H9.2l-8.7,12.4v1.7h9.1V133.2z M3.2,125.9L3.2,125.9l4.8-6.7
	c0.5-0.9,1-1.7,1.6-2.9h0.1c-0.1,1-0.1,2-0.1,3.1v6.5H3.2z"/>
<path class="st2" d="M33.6,118.4c-1.4,0-2.3,0.4-3.2,1c-0.6,0.4-1.2,1.1-1.6,1.9h-0.1c-0.6-1.7-2.1-2.9-4.1-2.9
	c-2.4,0-3.8,1.3-4.6,2.7h-0.1l-0.1-2.3h-2.3c0.1,1.2,0.1,2.4,0.1,3.9v10.6h2.6v-8.8c0-0.5,0.1-0.9,0.2-1.3c0.4-1.3,1.6-2.6,3.3-2.6
	c2,0,3,1.7,3,4v8.7h2.6v-9c0-0.5,0.1-1,0.2-1.3c0.5-1.3,1.6-2.4,3.1-2.4c2.1,0,3.1,1.7,3.1,4.5v8.2h2.6v-8.5
	C38.4,119.6,35.5,118.4,33.6,118.4z"/>
<path class="st2" d="M6.1,81.8c-1.8,0-3.4-0.6-4.2-1.1l-0.7,2c0.9,0.6,2.7,1.2,4.9,1.2c4.2,0,7.3-2.8,7.3-6.7c0-2.5-1.3-4.1-2.8-5
	c-1.2-0.7-2.7-1-4.2-1c-0.7,0-1.1,0.1-1.6,0.1l0.8-5H13v-2.2H3.7l-1.3,9.4c0.7-0.1,1.6-0.2,2.7-0.2c3.9,0,5.6,1.8,5.6,4.3
	C10.8,80.1,8.6,81.8,6.1,81.8z"/>
<path class="st2" d="M33.6,68.7c-1.4,0-2.3,0.4-3.2,1c-0.6,0.4-1.2,1.1-1.6,1.9h-0.1c-0.6-1.7-2.1-2.9-4.1-2.9
	c-2.4,0-3.8,1.3-4.6,2.7h-0.1L19.8,69h-2.3c0.1,1.2,0.1,2.4,0.1,3.9v10.6h2.6v-8.8c0-0.5,0.1-0.9,0.2-1.3c0.4-1.3,1.6-2.6,3.3-2.6
	c2,0,3,1.7,3,4v8.7h2.6v-9c0-0.5,0.1-1,0.2-1.3c0.5-1.3,1.6-2.4,3.1-2.4c2.1,0,3.1,1.7,3.1,4.5v8.2h2.6V75
	C38.4,70,35.5,68.7,33.6,68.7z"/>
<path class="st2" d="M8,34.2c4,0,6.5-3.3,6.5-6.9c0-3.8-2.4-6.3-5.9-6.3c-2.2,0-3.8,1-4.7,2.2H3.8c0.5-3.2,2.6-6.2,6.8-6.9
	c0.8-0.1,1.4-0.1,2-0.1V14c-0.5,0-1.1,0-1.9,0.1c-2.5,0.3-4.6,1.3-6.2,2.9c-1.9,1.9-3.3,5-3.3,8.8C1.1,31,3.8,34.2,8,34.2z M4,25.4
	C4.7,24,6.2,23,7.8,23c2.4,0,4,1.7,4,4.5s-1.5,4.7-3.8,4.7c-2.8,0-4.2-2.4-4.3-5.6C3.7,26.1,3.8,25.7,4,25.4z"/>
<path class="st2" d="M33.6,19.1c-1.4,0-2.3,0.4-3.2,1c-0.6,0.4-1.2,1.1-1.6,1.9h-0.1c-0.6-1.7-2.1-2.9-4.1-2.9
	c-2.4,0-3.8,1.3-4.6,2.7h-0.1l-0.1-2.3h-2.3c0.1,1.2,0.1,2.4,0.1,3.9V34h2.6v-8.8c0-0.5,0.1-0.9,0.2-1.3c0.4-1.3,1.6-2.6,3.3-2.6
	c2,0,3,1.7,3,4V34h2.6v-9c0-0.5,0.1-1,0.2-1.3c0.5-1.3,1.6-2.4,3.1-2.4c2.1,0,3.1,1.7,3.1,4.5V34h2.6v-8.5
	C38.4,20.3,35.5,19.1,33.6,19.1z"/>
</svg>
