<?xml version="1.0" encoding="utf-8"?>
<!-- Generator: Adobe Illustrator 21.0.0, SVG Export Plug-In . SVG Version: 6.00 Build 0)  -->
<!DOCTYPE svg PUBLIC "-//W3C//DTD SVG 1.1//EN" "http://www.w3.org/Graphics/SVG/1.1/DTD/svg11.dtd">
<svg version="1.1" id="Layer_1" xmlns="http://www.w3.org/2000/svg" xmlns:xlink="http://www.w3.org/1999/xlink" x="0px" y="0px"
	 viewBox="0 0 248.7 214" style="enable-background:new 0 0 248.7 214;" xml:space="preserve">
<style type="text/css">
	.st0{fill:#1E5799;}
</style>
<g>
	<path class="st0" d="M222.3,0h-196C11.8,0,0,11.8,0,26.3l0,0c0,14.5,11.8,26.3,26.3,26.3h196c14.5,0,26.3-11.8,26.3-26.3l0,0
		C248.7,11.8,236.9,0,222.3,0z"/>
	<path class="st0" d="M222.3,161.3h-196C11.8,161.3,0,173.1,0,187.7l0,0C0,202.2,11.8,214,26.3,214h196c14.5,0,26.3-11.8,26.3-26.3
		l0,0C248.7,173.1,236.9,161.3,222.3,161.3z"/>
	<path class="st0" d="M222.3,80.7h-196C11.8,80.7,0,92.5,0,107l0,0c0,14.5,11.8,26.3,26.3,26.3h196c14.5,0,26.3-11.8,26.3-26.3l0,0
		C248.7,92.5,236.9,80.7,222.3,80.7z"/>
</g>
</svg>
