<?xml version="1.0" encoding="utf-8"?>
<!-- Generator: Adobe Illustrator 21.0.0, SVG Export Plug-In . SVG Version: 6.00 Build 0)  -->
<!DOCTYPE svg PUBLIC "-//W3C//DTD SVG 1.1//EN" "http://www.w3.org/Graphics/SVG/1.1/DTD/svg11.dtd">
<svg version="1.1" id="Layer_1" xmlns="http://www.w3.org/2000/svg" xmlns:xlink="http://www.w3.org/1999/xlink" x="0px" y="0px"
	 viewBox="0 0 512 512" style="enable-background:new 0 0 512 512;" xml:space="preserve">
<style type="text/css">
	.st0{fill:#FFFFFF;}
</style>
<g>
	<g>
		<g>
			<path class="st0" d="M474,24.2c-3.2-9.1-9.7-16.4-18.3-20.6C450.8,1.2,445.5,0,440.1,0c-13.7,0-26.4,8-32.4,20.3l-61.5,127.2
				c-4,8.4-4.7,17.8-1.9,26.6L235,400.1c-33.7-17.1-91.1-33.4-115.4-38.5c-21.5-4.4-50.7-3.9-67.9,24.1
				c-16.9,27.4-16.6,52-14.9,68.2c2.4,23.4,22.1,40.5,54,47.1c21.5,4.5,69.2,10.9,106,10.9c9.7,0,18.6-0.4,26.1-1.5
				c24.4-2.6,44.2-20.5,49.2-44.6c1.5-7.5,1.6-15,0.1-22.4l119.3-246.7c8.4-3.2,15.6-9.6,19.6-17.9l61.5-127.2
				C476.6,43,477.2,33.2,474,24.2z M395.3,171.2c-3.1,6.4-9.7,10.5-16.7,10.5c-2.8,0-5.5-0.6-8.1-1.9c-4.5-2.2-7.8-5.9-9.5-10.6
				c-1.6-4.7-1.3-9.7,0.8-14.2L388,101l33.8,15.4L395.3,171.2z M429.4,100.7l-33.8-15.4l7-14.4l33.8,15.4L429.4,100.7z M456.8,44.1
				l-12.9,26.6l-33.8-15.4l13.2-27.3c3.1-6.4,9.7-10.5,16.7-10.5c2.8,0,5.5,0.6,8.1,1.9c4.5,2.2,7.8,5.9,9.5,10.6
				C459.2,34.6,458.9,39.6,456.8,44.1z"/>
		</g>
	</g>
</g>
</svg>
