<?xml version="1.0" encoding="utf-8"?>
<!-- Generator: Adobe Illustrator 21.0.0, SVG Export Plug-In . SVG Version: 6.00 Build 0)  -->
<!DOCTYPE svg PUBLIC "-//W3C//DTD SVG 1.1//EN" "http://www.w3.org/Graphics/SVG/1.1/DTD/svg11.dtd">
<svg version="1.1" id="Layer_1" xmlns="http://www.w3.org/2000/svg" xmlns:xlink="http://www.w3.org/1999/xlink" x="0px" y="0px"
	 viewBox="0 0 512 512" style="enable-background:new 0 0 512 512;" xml:space="preserve">
<style type="text/css">
	.st0{opacity:0.65;}
	.st1{fill:#FFFFFF;}
	.st2{opacity:0.35;fill:#FFFFFF;}
</style>
<g class="st0">
	<path class="st1" d="M272.2,180.2L382.9,69.5l38.9,38.9c8.9,8.9,20.7,13.8,33.3,13.8c12.6,0,24.4-4.9,33.3-13.8
		c18.4-18.4,18.4-48.2,0-66.6l-24.1-24C455.5,8.9,443.6,4,431,4s-24.4,4.9-33.3,13.8c-6.9,6.9-135.2,135.2-142.1,142.1l-1.8,1.8
		L272.2,180.2z M416.2,36.2c4-4,9.2-6.2,14.9-6.2c5.6,0,10.9,2.2,14.9,6.2l24.1,24.1c8.2,8.2,8.2,21.5,0,29.7
		c-4.1,4.1-9.5,6.1-14.9,6.1c-5.4,0-10.8-2-14.9-6.1l-39-39L416.2,36.2z"/>
	<path class="st1" d="M493.2,186.3l-24.1-24.1c-8.9-8.9-20.7-13.8-33.3-13.8s-24.4,4.9-33.3,13.8l-74.1,74.1l18.5,18.5l40.9-40.9
		l38.9,38.9c8.9,8.9,20.7,13.8,33.3,13.8s24.4-4.9,33.3-13.8C511.6,234.5,511.6,204.6,493.2,186.3z M474.8,234.4
		c-4.1,4.1-9.5,6.1-14.9,6.1c-5.4,0-10.8-2-14.9-6.1l-38.9-38.9l14.9-14.9c4-4,9.3-6.2,14.9-6.2c5.6,0,10.9,2.2,14.9,6.2l24.1,24.1
		c4,4,6.2,9.2,6.2,14.9C481,225.2,478.8,230.5,474.8,234.4z"/>
</g>
<path class="st2" d="M347.4,255.7l0.2-0.2L329.1,237l-0.3,0.3l-56.1-56.2l0.3-0.3l-18.4-18.5l-0.1,0.1l-2.8-2.5
	c-18.6-16.3-46.8-15.3-64.3,2.1L160.4,189l-14.9-14.9c-8.9-8.9-20.7-13.8-33.3-13.8c-12.6,0-24.4,4.9-33.3,13.8l-48.1,48.2
	c-18.4,18.4-18.4,48.2,0,66.6l14.9,14.9l-26.9,26.9c-18.4,18.4-18.4,48.2,0,66.6l96.3,96.3c8.9,8.9,20.7,13.8,33.3,13.8
	c12.6,0,24.4-4.9,33.3-13.8c17.5-17.5,151.4-151.4,168.5-168.5c8.9-8.9,13.8-20.7,13.8-33.3c0-12.6-4.9-24.4-13.8-33.3L347.4,255.7z
	 M208.6,429.9l-126-126l77.9-77.9l126,126L208.6,429.9z"/>
</svg>
