<?xml version="1.0" encoding="utf-8"?>
<!-- Generator: Adobe Illustrator 21.0.0, SVG Export Plug-In . SVG Version: 6.00 Build 0)  -->
<!DOCTYPE svg PUBLIC "-//W3C//DTD SVG 1.1//EN" "http://www.w3.org/Graphics/SVG/1.1/DTD/svg11.dtd">
<svg version="1.1" id="Layer_1" xmlns="http://www.w3.org/2000/svg" xmlns:xlink="http://www.w3.org/1999/xlink" x="0px" y="0px"
	 viewBox="0 0 481.4 518.5" style="enable-background:new 0 0 481.4 518.5;" xml:space="preserve">
<style type="text/css">
	.st0{fill:#FFFFFF;}
</style>
<g>
	<path class="st0" d="M264.5,256.7C264.5,256.7,264.5,256.7,264.5,256.7c0.3,0.1,0.6,0.1,0.9,0.1
		C265.1,256.8,264.8,256.7,264.5,256.7z"/>
	<path class="st0" d="M243.3,256.6c-0.3,0-0.7,0.1-1,0.1C242.6,256.7,242.9,256.7,243.3,256.6C243.3,256.7,243.3,256.7,243.3,256.6z
		"/>
	<path class="st0" d="M470.8,0h-32.4c-5.2,0-6.4,3.2-10.5,8.6l-93.7,151.6l-11.6,5.2l-22.4,36.6c-51-13.7-139.3-34.5-204.1-34.5
		c-41.2,0-67.2,8.4-79.3,25.7c-5.7,8.1-13,28.2-15.8,53.2c-2.3,21.1-2.1,52.4,12.4,81.8c10.4,21,26.4,37.9,47.7,50.1
		c24.2,13.8,55.3,21.7,92.5,23.4c4.1,0.2,8.3,0.3,12.3,0.3c19.3,27.8,51.4,46.1,87.7,46.1c58.8,0,106.7-47.8,106.7-106.7
		c0-23.5-7.6-45.2-20.5-62.9c3.1-10.6,5.1-20.5,6.4-28.8l36.3-53.9l-2.3-12.6L481.2,12.8c0,0,0,0,0-0.1l0-0.1c0.1-0.7,0.2-1.3,0.2-2
		C481.4,4.8,476.7,0,470.8,0z M361.8,173.1l2.1,12.2l-14.1,18l-23.2,31.8c-0.6,6.3-1.8,14.9-4,24.8c-18.6-15.7-42.6-25.3-68.8-25.3
		c-19.4,0-37.6,5.2-53.3,14.3l-23,17.9c-10.8,11.1-19.2,24.4-24.4,39.3l-5,20.8c-0.6,4.7-1,9.5-1,14.3c0,13.7,2.6,26.9,7.4,39
		c-62.1-2.9-103.1-23.6-121.9-61.6c-12.2-24.8-12.4-51.8-10.3-70c2.3-21.2,8.6-38.4,12-43.3c5.3-7.6,20.3-16.6,61.8-16.6
		c67,0,163.5,24.1,210.6,37.1l21.1-29.6l13.3-21.4l12-5.6l92.7-151.7h10.7L361.8,173.1z"/>
	<path class="st0" d="M285.8,454.5c-9.9,2.8-20.6,4.2-32,4.4c-11,0.3-21.7-1.1-32-4.4c-5.9,0-10.7,4.8-10.7,10.7
		c0,5.9,4.8,10.7,10.7,10.7h0c11.8,0,21.3,9.5,21.3,21.3v21.3h21.3v-21.3c0-11.8,9.5-21.3,21.3-21.3c5.9,0,10.7-4.8,10.7-10.7
		C296.5,459.3,291.7,454.5,285.8,454.5z"/>
</g>
</svg>
