<?xml version="1.0" encoding="utf-8"?>
<!-- Generator: Adobe Illustrator 21.0.0, SVG Export Plug-In . SVG Version: 6.00 Build 0)  -->
<!DOCTYPE svg PUBLIC "-//W3C//DTD SVG 1.1//EN" "http://www.w3.org/Graphics/SVG/1.1/DTD/svg11.dtd">
<svg version="1.1"
	 id="svg2816" inkscape:version="0.47 r22583" sodipodi:docname="pin.svg" xmlns:cc="http://creativecommons.org/ns#" xmlns:dc="http://purl.org/dc/elements/1.1/" xmlns:inkscape="http://www.inkscape.org/namespaces/inkscape" xmlns:rdf="http://www.w3.org/1999/02/22-rdf-syntax-ns#" xmlns:sodipodi="http://sodipodi.sourceforge.net/DTD/sodipodi-0.dtd" xmlns:svg="http://www.w3.org/2000/svg"
	 xmlns="http://www.w3.org/2000/svg" xmlns:xlink="http://www.w3.org/1999/xlink" x="0px" y="0px" viewBox="0 0 94 128"
	 style="enable-background:new 0 0 94 128;" xml:space="preserve">
<style type="text/css">
	.st0{fill:#709A53;fill-opacity:0.9882;}
	.st1{opacity:0.3402;fill-opacity:0;enable-background:new    ;}
	.st2{fill:#000080;fill-opacity:0;}
	.st3{fill:#95CD6F;}
	.st4{fill:#FFFFFF;}
</style>
<defs>
	
	
		<inkscape:perspective  id="perspective2824" inkscape:persp3d-origin="0.5 : 0.33333333 : 1" inkscape:vp_x="0 : 0.5 : 1" inkscape:vp_y="0 : 1000 : 0" inkscape:vp_z="1 : 0.5 : 1" sodipodi:type="inkscape:persp3d">
		</inkscape:perspective>
</defs>
<sodipodi:namedview  bordercolor="#666666" borderopacity="1" gridtolerance="10" guidetolerance="10" id="namedview2818" inkscape:current-layer="svg2816" inkscape:cx="44.920355" inkscape:cy="60.493358" inkscape:pageopacity="0" inkscape:pageshadow="2" inkscape:window-height="809" inkscape:window-maximized="0" inkscape:window-width="1126" inkscape:window-x="287" inkscape:window-y="0" inkscape:zoom="3.0991164" objecttolerance="10" pagecolor="#ffffff" showgrid="false">
	</sodipodi:namedview>
<path id="path4127" sodipodi:nodetypes="ccccccccccsc" class="st0" d="M47,126.6c-0.3-0.7-6.2-6.4-10.4-11.7
	C11.7,81.9-16.2,51.1,16.3,13.7C30.7-0.2,48.4-1,66.7,5.5c51.3,29.7,14.2,78.2-10.2,110L47,126.6z M62.4,75.9
	c34.2-24.5,7.8-71.6-29.8-56c-11,5.9-16.4,16-16.6,28.1c-0.5,11.7,5.7,21.5,15.5,27.5c7.1,3.8,10.2,4.5,18.1,4.1
	C54.8,79.2,57.8,78.3,62.4,75.9z"/>
<path id="path4129" sodipodi:cx="52.363636" sodipodi:cy="49.05526" sodipodi:end="8.0386371" sodipodi:open="true" sodipodi:rx="51.222816" sodipodi:ry="41.754009" sodipodi:start="1.7808687" sodipodi:type="arc" class="st0" d="
	M37.2,87.6C12.9,82.5-2.6,59.2,2.5,35.4S31.6-3.4,55.9,1.7S95.7,30,90.5,53.8c-5.1,23.3-28.3,38.4-52.3,34"/>
<path id="path4131" sodipodi:cx="49.05526" sodipodi:cy="48.59893" sodipodi:end="8.0386371" sodipodi:open="true" sodipodi:rx="26.010695" sodipodi:ry="20.991087" sodipodi:start="1.7808687" sodipodi:type="arc" class="st1" d="
	M44.3,69.1c-14-2.4-23-13.6-20-24.9s16.8-18.6,30.9-16.2s23,13.6,20,24.9c-2.9,11.1-16.3,18.3-30.2,16.3"/>
<path id="path4135" sodipodi:cx="35.365417" sodipodi:cy="102.78788" sodipodi:end="8.0386371" sodipodi:open="true" sodipodi:rx="16.655972" sodipodi:ry="11.750445" sodipodi:start="1.7808687" sodipodi:type="arc" class="st2" d="
	M32.5,114.3c-9-1.4-14.7-7.6-12.8-13.9c1.9-6.3,10.8-10.4,19.8-9c9,1.4,14.7,7.6,12.8,13.9c-1.9,6.2-10.5,10.3-19.3,9.1"/>
<path id="path4149" sodipodi:cx="52.705883" sodipodi:cy="52.021389" sodipodi:end="8.0386371" sodipodi:open="true" sodipodi:rx="34.452763" sodipodi:ry="33.540108" sodipodi:start="1.7808687" sodipodi:type="arc" class="st3" d="
	M40.1,81.4c-18.1-4-29.6-22.3-25.7-40.9S36,10,54,14s29.6,22.3,25.7,40.9C76,73.1,58.8,85,40.9,81.6"/>
<path id="path4184" sodipodi:cx="64.211853" sodipodi:cy="68.789574" sodipodi:end="8.0386371" sodipodi:open="true" sodipodi:rx="34.203297" sodipodi:ry="36.623341" sodipodi:start="1.7808687" sodipodi:type="arc" class="st4" d="
	M42,69.4c-11.9-2.6-19.6-14.6-17-26.8s14.3-20,26.2-17.4s19.6,14.6,17,26.8c-2.5,12-13.9,19.7-25.7,17.5"/>
</svg>
