<?xml version="1.0" encoding="utf-8"?>
<!-- Generator: Adobe Illustrator 21.0.0, SVG Export Plug-In . SVG Version: 6.00 Build 0)  -->
<!DOCTYPE svg PUBLIC "-//W3C//DTD SVG 1.1//EN" "http://www.w3.org/Graphics/SVG/1.1/DTD/svg11.dtd">
<svg version="1.1" id="Layer_1" xmlns="http://www.w3.org/2000/svg" xmlns:xlink="http://www.w3.org/1999/xlink" x="0px" y="0px"
	 viewBox="0 0 276.7 267.7" style="enable-background:new 0 0 276.7 267.7;" xml:space="preserve">
<style type="text/css">
	.st0{fill:#FFFFFF;}
</style>
<g>
	<path class="st0" d="M232.8,187.6c-20.6-6.2-46.5-10.2-75-11.4v11c63.7,2.9,106.3,19.7,106.3,33.8c0,6-9.1,15.1-34.6,22.8
		c-24.3,7.4-56.7,11.4-91.3,11.4c-72,0-125.8-18.1-125.8-34.2c0-6,9.1-15.1,34.6-22.8c19.6-5.9,44.4-9.7,71.8-11v-11
		c-28.5,1.3-54.4,5.2-75,11.4C16.2,196,1.5,207.6,1.5,221s14.7,25,42.4,33.4c25.3,7.7,58.9,11.9,94.5,11.9
		c35.6,0,69.2-4.2,94.5-11.9c27.7-8.4,42.4-19.9,42.4-33.4S260.5,196,232.8,187.6z"/>
	<path class="st0" d="M232.8,254.4c-25.3,7.7-58.9,11.9-94.5,11.9c-35.6,0-69.2-4.2-94.5-11.9C16.2,246,1.5,234.4,1.5,221
		s14.7-25,42.4-33.4c20.6-6.2,46.5-10.2,75-11.4v11c-27.3,1.2-52.1,5-71.8,11C21.6,205.9,12.5,215,12.5,221
		c0,16.2,53.8,34.2,125.8,34.2c34.6,0,67-4,91.3-11.4c25.5-7.7,34.6-16.8,34.6-22.8c0-14.1-42.7-30.9-106.3-33.8v-11
		c28.5,1.3,54.4,5.2,75,11.4c27.7,8.4,42.4,19.9,42.4,33.4S260.5,246,232.8,254.4z"/>
	<polygon class="st0" points="132.8,219.5 143.8,219.5 143.8,1.5 132.8,1.5 132.8,4 106.8,34.2 106.6,47.7 97.5,62.4 97.5,106 
		132.8,59 	"/>
	<path class="st0" d="M97.5,106V62.4l9.1-14.7l0.2-13.5l26-30.2V1.5h11v218h-11V59L97.5,106z"/>
</g>
</svg>
