<?xml version="1.0" encoding="utf-8"?>
<!-- Generator: Adobe Illustrator 21.0.0, SVG Export Plug-In . SVG Version: 6.00 Build 0)  -->
<!DOCTYPE svg PUBLIC "-//W3C//DTD SVG 1.1//EN" "http://www.w3.org/Graphics/SVG/1.1/DTD/svg11.dtd">
<svg version="1.1" id="Capa_1" xmlns="http://www.w3.org/2000/svg" xmlns:xlink="http://www.w3.org/1999/xlink" x="0px" y="0px"
	 viewBox="0 0 317 317" style="enable-background:new 0 0 317 317;" xml:space="preserve">
<style type="text/css">
	.st0{fill:#FFFFFF;}
</style>
<g>
	<polygon class="st0" points="313.8,39.4 280.7,6.3 115.7,147.8 172.3,204.4 	"/>
	<polygon class="st0" points="164.7,211.3 108.9,155.5 58.3,228.8 91.4,261.9 	"/>
	<path class="st0" d="M51.4,300.6l30.7-39.8l-23.1-22.7L23,265.2c0,0-1.6,33.4-22.9,51.8C0.1,317,25.3,297.8,51.4,300.6z M40.4,289
		c-3.9,0-7.1-3.2-7.1-7.1s3.2-7.1,7.1-7.1s7.1,3.2,7.1,7.1S44.3,289,40.4,289z"/>
	<path class="st0" d="M286.4,0l30.5,30.5C317-1.1,286.4,0,286.4,0z"/>
</g>
</svg>
