<?xml version="1.0" encoding="utf-8"?>
<!-- Generator: Adobe Illustrator 21.0.0, SVG Export Plug-In . SVG Version: 6.00 Build 0)  -->
<!DOCTYPE svg PUBLIC "-//W3C//DTD SVG 1.1//EN" "http://www.w3.org/Graphics/SVG/1.1/DTD/svg11.dtd">
<svg version="1.1" id="Layer_1" xmlns="http://www.w3.org/2000/svg" xmlns:xlink="http://www.w3.org/1999/xlink" x="0px" y="0px"
	 viewBox="0 0 512 512" style="enable-background:new 0 0 512 512;" xml:space="preserve">
<style type="text/css">
	.st0{fill:#FFFFFF;}
</style>
<g>
	<path class="st0" d="M493.9,186.3L493.9,186.3l-24.1-24.1c-8.9-8.9-20.7-13.8-33.3-13.8s-24.4,4.9-33.3,13.8l-75.1,75.1L272,181.1
		L383.6,69.5l38.9,38.9c8.9,8.9,20.7,13.8,33.3,13.8c12.6,0,24.4-4.9,33.3-13.8c18.4-18.4,18.4-48.2,0-66.6L465,17.8
		C456.2,8.9,444.3,4,431.7,4s-24.4,4.9-33.3,13.8c-6.9,6.9-135.2,135.2-142.1,142.1l-2.6,2.6l-2.8-2.5
		c-18.6-16.3-46.8-15.3-64.3,2.1l-26.9,26.9l-14.9-14.9c-8.9-8.9-20.7-13.8-33.3-13.8c-12.6,0-24.4,4.9-33.3,13.8l-48.1,48.2
		c-18.4,18.4-18.4,48.2,0,66.6L45,303.8l-26.9,26.9c-18.4,18.4-18.4,48.2,0,66.6l96.3,96.3c8.9,8.9,20.7,13.8,33.3,13.8c0,0,0,0,0,0
		c12.6,0,24.4-4.9,33.3-13.8c17.5-17.5,151.4-151.4,168.5-168.5c8.9-8.9,13.8-20.7,13.8-33.3c0-12.6-4.9-24.4-13.8-33.3l-2.8-2.8
		l41.8-41.8l38.9,38.9c8.9,8.9,20.7,13.8,33.3,13.8s24.4-4.9,33.3-13.8C512.3,234.5,512.3,204.6,493.9,186.3z M416.9,36.2
		c4-4,9.2-6.2,14.9-6.2c5.6,0,10.9,2.2,14.9,6.2l24.1,24.1c8.2,8.2,8.2,21.5,0,29.7c-4.1,4.1-9.5,6.1-14.9,6.1s-10.8-2-14.9-6.1
		L402,51L416.9,36.2z M207.9,429.9l-126-126l77.9-77.9l126,126L207.9,429.9z M475.5,234.4c-4.1,4.1-9.5,6.1-14.9,6.1
		s-10.8-2-14.9-6.1l-38.9-38.9l14.9-14.9c4-4,9.3-6.2,14.9-6.2c5.6,0,10.9,2.2,14.9,6.2l24.1,24.1c4,4,6.2,9.2,6.2,14.9
		C481.7,225.2,479.5,230.5,475.5,234.4z"/>
</g>
</svg>
