<?xml version="1.0" encoding="utf-8"?>
<!-- Generator: Adobe Illustrator 21.0.0, SVG Export Plug-In . SVG Version: 6.00 Build 0)  -->
<!DOCTYPE svg PUBLIC "-//W3C//DTD SVG 1.1//EN" "http://www.w3.org/Graphics/SVG/1.1/DTD/svg11.dtd">
<svg version="1.1" id="Layer_1" xmlns="http://www.w3.org/2000/svg" xmlns:xlink="http://www.w3.org/1999/xlink" x="0px" y="0px"
	 viewBox="0 0 512 512" style="enable-background:new 0 0 512 512;" xml:space="preserve">
<style type="text/css">
	.st0{opacity:0.65;fill:#FFFFFF;enable-background:new    ;}
	.st1{opacity:0.35;fill:#FFFFFF;enable-background:new    ;}
</style>
<g>
	<path class="st0" d="M395.3,171.2l26.5-54.8L388,101l-26.1,54.1c-2.2,4.5-2.5,9.5-0.8,14.2c1.6,4.7,5,8.5,9.5,10.6
		c2.5,1.2,5.3,1.9,8.1,1.9C385.6,181.7,392.2,177.6,395.3,171.2z"/>
	<polygon class="st0" points="436.3,86.3 402.5,70.9 395.6,85.3 429.4,100.7 	"/>
	<path class="st0" d="M448.1,19.3c-2.6-1.2-5.3-1.9-8.1-1.9c-7.1,0-13.7,4.1-16.7,10.5l-13.2,27.3l33.8,15.4L456.8,44
		c2.2-4.5,2.5-9.5,0.8-14.2S452.6,21.4,448.1,19.3z"/>
	<path class="st1" d="M474,24.2c-3.2-9.1-9.7-16.4-18.3-20.6C450.8,1.2,445.5,0,440.1,0c-13.7,0-26.4,8-32.4,20.3l-61.5,127.2
		c-4,8.4-4.7,17.8-1.9,26.6L235,400.1c-33.7-17.1-91.1-33.4-115.4-38.5c-21.5-4.4-50.7-3.9-67.9,24.1c-16.9,27.4-16.6,52-14.9,68.2
		c2.4,23.4,22.1,40.5,54,47.1c21.5,4.5,69.2,10.9,106,10.9c9.7,0,18.6-0.4,26.1-1.5c24.4-2.6,44.2-20.5,49.2-44.6
		c1.5-7.5,1.6-15,0.1-22.4l119.3-246.7c8.4-3.2,15.6-9.6,19.6-17.9l61.5-127.2C476.6,43,477.2,33.2,474,24.2z M370.5,179.9
		c-4.5-2.2-7.8-5.9-9.5-10.6c-1.6-4.7-1.3-9.7,0.8-14.2L388,101l33.8,15.4l-26.5,54.8c-3.1,6.4-9.7,10.5-16.7,10.5
		C375.8,181.7,373,181.1,370.5,179.9z M402.5,70.9l33.8,15.4l-7,14.4l-33.8-15.4L402.5,70.9z M456.8,44.1l-12.9,26.6l-33.8-15.4
		L423.3,28c3.1-6.4,9.7-10.5,16.7-10.5c2.8,0,5.5,0.6,8.1,1.9c4.5,2.2,7.8,5.9,9.5,10.6S458.9,39.6,456.8,44.1z"/>
</g>
</svg>
