<?xml version="1.0" encoding="utf-8"?>
<!-- Generator: Adobe Illustrator 21.0.0, SVG Export Plug-In . SVG Version: 6.00 Build 0)  -->
<!DOCTYPE svg PUBLIC "-//W3C//DTD SVG 1.1//EN" "http://www.w3.org/Graphics/SVG/1.1/DTD/svg11.dtd">
<svg version="1.1" id="Layer_1" xmlns="http://www.w3.org/2000/svg" xmlns:xlink="http://www.w3.org/1999/xlink" x="0px" y="0px"
	 viewBox="0 0 275.9 275.9" style="enable-background:new 0 0 275.9 275.9;" xml:space="preserve">
<style type="text/css">
	.st0{clip-path:url(#SVGID_2_);}
	.st1{fill:#FFFFFF;}
</style>
<title>icon-facebook</title>
<g>
	<defs>
		<rect id="SVGID_1_" x="4.5" y="4.5" width="266.9" height="266.9"/>
	</defs>
	<clipPath id="SVGID_2_">
		<use xlink:href="#SVGID_1_"  style="overflow:visible;"/>
	</clipPath>
	<g class="st0">
		<path class="st1" d="M256.7,4.5H19.2c-8.1,0-14.7,6.6-14.7,14.7c0,0,0,0,0,0v237.4c0,8.1,6.6,14.7,14.7,14.7c0,0,0,0,0,0h127.8
			V168h-34.8v-40.3h34.8V98.1c0-34.5,21.1-53.2,51.8-53.2c10.4,0,20.8,0.5,31.1,1.6v36h-21.3c-16.7,0-20,7.9-20,19.6v25.7h39.9
			l-5.2,40.3h-34.7v103.4h68c8.1,0,14.7-6.6,14.7-14.7c0,0,0,0,0,0V19.2C271.4,11.1,264.8,4.5,256.7,4.5"/>
	</g>
</g>
</svg>
