<?xml version="1.0" encoding="utf-8"?>
<!-- Generator: Adobe Illustrator 21.0.0, SVG Export Plug-In . SVG Version: 6.00 Build 0)  -->
<!DOCTYPE svg PUBLIC "-//W3C//DTD SVG 1.1//EN" "http://www.w3.org/Graphics/SVG/1.1/DTD/svg11.dtd">
<svg version="1.1" id="Layer_1" xmlns="http://www.w3.org/2000/svg" xmlns:xlink="http://www.w3.org/1999/xlink" x="0px" y="0px"
	 viewBox="0 0 481.4 518.5" style="enable-background:new 0 0 481.4 518.5;" xml:space="preserve">
<style type="text/css">
	.st0{opacity:0.35;fill:#FFFFFF;enable-background:new    ;}
	.st1{opacity:0.65;fill:#FFFFFF;enable-background:new    ;}
</style>
<g>
	<path class="st0" d="M470.8,0h-32.4c-5.2,0-6.4,3.2-10.5,8.6l-93.7,151.6l-11.6,5.2L300.2,202c-51-13.7-139.3-34.5-204.1-34.5
		c-41.2,0-67.2,8.4-79.3,25.7c-5.7,8.1-13,28.2-15.8,53.2c-2.3,21.1-2.1,52.4,12.4,81.8c10.4,21,26.4,37.9,47.7,50.1
		c24.2,13.8,55.3,21.7,92.5,23.4c0.5,0,1.1,0,1.6,0.1c-4.2-7-7.7-14.3-10.3-22c-56.8-4.5-94.6-25-112.4-61
		c-12.2-24.8-12.4-51.8-10.3-70c2.3-21.2,8.6-38.4,12-43.3c5.3-7.6,20.3-16.6,61.8-16.6c67,0,163.5,24.1,210.6,37.1l21.1-29.6
		L341,175l12-5.6l92.7-151.7h10.7l-94.9,155.6l2.1,12.2l-14.1,18l-23.2,31.8c-0.3,3.6-0.9,8-1.7,12.9c1.4,1.1,2.9,2.2,4.2,3.3
		c5.1,4.2,9.9,8.9,14.2,13.9c1.3-5.6,2.2-10.8,3-15.6l36.3-53.9l-2.3-12.6L481.2,12.8c0,0,0,0,0-0.1v-0.1c0.1-0.7,0.2-1.3,0.2-2
		C481.4,4.8,476.7,0,470.8,0z"/>
	<path class="st0" d="M285.8,454.5c-9.9,2.8-20.6,4.2-32,4.4c-11,0.3-21.7-1.1-32-4.4c-5.9,0-10.7,4.8-10.7,10.7
		c0,5.9,4.8,10.7,10.7,10.7l0,0c11.8,0,21.3,9.5,21.3,21.3v21.3h21.3v-21.3c0-11.8,9.5-21.3,21.3-21.3c5.9,0,10.7-4.8,10.7-10.7
		C296.5,459.3,291.7,454.5,285.8,454.5z"/>
	<path class="st1" d="M360.4,341.4c0,58.9-47.7,106.6-106.6,106.6c-0.2,0-0.5,0-0.7,0c-58.5-0.4-105.9-47.9-105.9-106.6
		c0-33.2,15.1-62.8,38.9-82.3c1.5-1.2,2.9-2.3,4.4-3.5c17.7-13.1,39.6-20.8,63.2-20.8c1.2,0,2.3,0,3.5,0.1c2.3,0.1,4.6,0.2,6.9,0.4
		c1.1,0.1,2.3,0.2,3.4,0.4c20.3,2.6,38.8,11,53.9,23.3c0.8,0.7,1.6,1.4,2.4,2c5.6,4.8,10.6,10.3,15,16.2
		C352.4,295.1,360.4,317.3,360.4,341.4z"/>
</g>
</svg>
