<?xml version="1.0" encoding="utf-8"?>
<!-- Generator: Adobe Illustrator 21.0.0, SVG Export Plug-In . SVG Version: 6.00 Build 0)  -->
<!DOCTYPE svg PUBLIC "-//W3C//DTD SVG 1.1//EN" "http://www.w3.org/Graphics/SVG/1.1/DTD/svg11.dtd">
<svg version="1.1" id="Layer_1" xmlns="http://www.w3.org/2000/svg" xmlns:xlink="http://www.w3.org/1999/xlink" x="0px" y="0px"
	 viewBox="0 0 464 427.7" style="enable-background:new 0 0 464 427.7;" xml:space="preserve">
<style type="text/css">
	.st0{fill:#FFFFFF;}
</style>
<path class="st0" d="M361.2,422V271.6c0-37.8-14-63.5-49.1-63.5c-26.7,0-42.7,17.4-49.6,34.2c-2.6,6-3.2,14.4-3.2,22.8V422h-96.9
	c0,0,1.3-254.6,0-281h96.8v39.8c-0.2,0.3-0.4,0.6-0.6,0.9h0.6v-0.9c12.9-19.1,35.8-46.4,87.3-46.4c63.7,0,111.5,40.1,111.5,126.5
	V422H361.2z M60.3,102.6h-0.6C27.2,102.6,6.2,81,6.2,54.1C6.2,26.5,27.8,5.5,61,5.5c33.1,0,53.5,21,54.1,48.5
	C115.1,81,94.1,102.6,60.3,102.6z M108.7,422H11.9V141h96.8V422z"/>
</svg>
