<?xml version="1.0" encoding="utf-8"?>
<!-- Generator: Adobe Illustrator 21.0.0, SVG Export Plug-In . SVG Version: 6.00 Build 0)  -->
<!DOCTYPE svg PUBLIC "-//W3C//DTD SVG 1.1//EN" "http://www.w3.org/Graphics/SVG/1.1/DTD/svg11.dtd">
<svg version="1.1" id="Layer_1" xmlns="http://www.w3.org/2000/svg" xmlns:xlink="http://www.w3.org/1999/xlink" x="0px" y="0px"
	 viewBox="0 0 512 512" style="enable-background:new 0 0 512 512;" xml:space="preserve">
<style type="text/css">
	.st0{fill:#1E5799;}
</style>
<g>
	<g>
		<path class="st0" d="M312.4,199.6c-6.1-6.1-12.8-11.5-20-16.1c-19.2-12.3-41.6-18.9-64.4-18.9c-31.7-0.1-62.1,12.5-84.5,35
			L34.9,308.2C12.6,330.5,0.1,360.9,0,392.5C0,458.4,53.4,512,119.4,512c31.6,0.1,62-12.4,84.4-34.8l89.6-89.6
			c1.6-1.6,2.5-3.8,2.5-6.1c0-4.7-3.9-8.5-8.6-8.5h-3.4c-18.7,0.1-37.3-3.5-54.6-10.6c-3.2-1.3-6.9-0.6-9.3,1.9l-64.4,64.5
			c-20,20-52.4,20-72.4,0s-20-52.4,0-72.4l109-108.9c20-20,52.4-20,72.3,0c13.5,12.7,34.5,12.7,47.9,0c5.8-5.8,9.3-13.5,9.9-21.7
			C322.9,216.1,319.3,206.5,312.4,199.6z"/>
	</g>
</g>
<g>
	<g>
		<path class="st0" d="M477,35C430.3-11.7,354.7-11.7,308,35l-89.5,89.4c-2.5,2.5-3.2,6.2-1.8,9.4c1.4,3.2,4.5,5.3,8,5.2h3.2
			c18.7,0,37.2,3.6,54.5,10.7c3.2,1.3,6.9,0.6,9.3-1.9L356,83.6c20-20,52.4-20,72.4,0c20,20,20,52.4,0,72.4l-80,79.9l-0.7,0.8
			l-28,27.8c-20,20-52.4,20-72.4,0c-13.5-12.7-34.5-12.7-47.9,0c-5.8,5.8-9.3,13.6-9.9,21.8c-0.6,9.8,3,19.3,9.9,26.3
			c9.9,9.9,21.4,18,34.1,23.9c1.8,0.9,3.6,1.5,5.4,2.3c1.8,0.8,3.7,1.4,5.5,2c1.8,0.7,3.7,1.3,5.5,1.8l5,1.4
			c3.4,0.9,6.8,1.5,10.3,2.1c4.2,0.6,8.5,1,12.7,1.2h6h0.5l5.1-0.6c1.9-0.1,3.8-0.5,6.1-0.5h2.9l5.9-0.9l2.7-0.5l4.9-1h0.9
			c21-5.3,40.1-16.1,55.4-31.4L477,203.9C523.6,157.3,523.6,81.6,477,35z"/>
	</g>
</g>
</svg>
