<?xml version="1.0" encoding="iso-8859-1"?>
<!-- Generator: Adobe Illustrator 16.0.0, SVG Export Plug-In . SVG Version: 6.00 Build 0)  -->
<!DOCTYPE svg PUBLIC "-//W3C//DTD SVG 1.1//EN" "http://www.w3.org/Graphics/SVG/1.1/DTD/svg11.dtd">
<svg xmlns="http://www.w3.org/2000/svg" xmlns:xlink="http://www.w3.org/1999/xlink" version="1.1" id="Capa_1" x="0px" y="0px" width="512px" height="512px" viewBox="0 0 44.734 44.734" style="enable-background:new 0 0 44.734 44.734;" xml:space="preserve">
<g>
	<path d="M41.995,13.426L41.39,14.03L29.348,1.988l0.604-0.604c1.846-1.846,4.849-1.846,6.69,0.001l5.351,5.353   C43.838,8.582,43.84,11.583,41.995,13.426z M25.467,5.933l12.004,12.006l-10.76,10.757c-0.037,0.039-0.082,0.064-0.121,0.102   c-0.024,0.035-0.036,0.071-0.067,0.104c-0.979,0.977-2.103,1.538-3.17,1.581L12.79,32.404c-0.498,0-0.951-0.204-1.278-0.531   c-0.33-0.328-0.533-0.781-0.533-1.281l0.012-0.124l1.817-10.285c0.055-1.271,0.896-2.548,1.674-3.325   c0.064-0.063,0.137-0.107,0.213-0.143c0.008-0.006,0.012-0.016,0.018-0.021L25.467,5.933z M23.887,28.94l-9.477-9.478   c-0.112,0.289-0.183,0.566-0.188,0.812l-0.011,0.104l-0.729,4.121l0.229,0.229l1.942,1.94l2.824,2.823l0.219,0.22l4.564-0.649   C23.461,29.06,23.674,29.009,23.887,28.94z M26.897,4.5l12.004,12.004l1.154-1.152L28.049,3.346L26.897,4.5z M13.363,39.021   l-6.592-2.819l1.506-0.604c0.77-0.311,1.143-1.184,0.834-1.95c-0.309-0.771-1.18-1.144-1.949-0.834l-4.867,1.949   c-0.562,0.228-0.936,0.771-0.939,1.375c-0.008,0.606,0.354,1.157,0.91,1.396l6.592,2.819l-3.721,1.489   c-0.771,0.312-1.145,1.185-0.834,1.951c0.232,0.586,0.797,0.94,1.393,0.94c0.188,0,0.375-0.034,0.56-0.106l7.082-2.84   c0.562-0.228,0.937-0.77,0.94-1.377C14.281,39.81,13.922,39.259,13.363,39.021z" fill="#FFFFFF"/>
</g>
<g>
</g>
<g>
</g>
<g>
</g>
<g>
</g>
<g>
</g>
<g>
</g>
<g>
</g>
<g>
</g>
<g>
</g>
<g>
</g>
<g>
</g>
<g>
</g>
<g>
</g>
<g>
</g>
<g>
</g>
</svg>
