<?xml version="1.0" encoding="utf-8"?>
<!-- Generator: Adobe Illustrator 21.0.0, SVG Export Plug-In . SVG Version: 6.00 Build 0)  -->
<!DOCTYPE svg PUBLIC "-//W3C//DTD SVG 1.1//EN" "http://www.w3.org/Graphics/SVG/1.1/DTD/svg11.dtd">
<svg version="1.1" id="Capa_1" xmlns="http://www.w3.org/2000/svg" xmlns:xlink="http://www.w3.org/1999/xlink" x="0px" y="0px"
	 viewBox="0 0 268.7 268.7" style="enable-background:new 0 0 268.7 268.7;" xml:space="preserve">
<style type="text/css">
	.st0{fill:#567342;}
</style>
<g id="Edit">
	<path class="st0" d="M161.4,56.3c-7-7-18.5-7-25.5,0l-6.4,6.4l-89.2,89.3l0,0l-2.8,2.8c0,0-9,9-29.2,74.4c-0.1,0.5-0.3,0.9-0.4,1.4
		c-0.4,1.2-0.7,2.4-1.1,3.6c-0.3,1.1-0.7,2.2-1,3.2c-0.3,0.9-0.6,1.8-0.8,2.8c-0.6,2.1-1.3,4.3-2,6.6c-1.5,4.9-5,16.1-1,20.1
		c3.9,3.9,15.1,0.5,20-1c2.2-0.7,4.4-1.3,6.5-2c1-0.3,1.9-0.6,2.9-0.9c1-0.3,2.1-0.6,3.1-0.9c1.3-0.4,2.5-0.8,3.8-1.2
		c0.4-0.1,0.7-0.2,1.1-0.3c62.2-19.4,73.4-28.5,74.3-29.3c0,0,0,0,0,0c0,0,0.1-0.1,0.1-0.1l2.9-2.9l0.2,0.2l89.2-89.3l0,0l6.4-6.4
		c7-7,7-18.5,0-25.5L161.4,56.3z M103.4,219.8c-0.1,0.1-0.2,0.1-0.3,0.2c-0.1,0-0.1,0.1-0.2,0.1c-0.1,0-0.2,0.1-0.2,0.2
		c-0.1,0-0.2,0.1-0.2,0.1c-3,1.8-11.7,6.4-32.8,14c-2.5,0.9-5.2,1.8-8,2.8l-30.1-30.1c1-2.8,1.9-5.6,2.8-8c7.6-21.2,12.2-30,14-32.9
		c0-0.1,0.1-0.1,0.1-0.2c0.1-0.1,0.1-0.2,0.2-0.3c0-0.1,0.1-0.1,0.1-0.2c0.1-0.1,0.1-0.2,0.2-0.3l2.2-2.2l54.5,54.5L103.4,219.8z
		 M263.4,56.3l-51-51c-7-7-18.5-7-25.5,0l-12.7,12.8c-7,7-7,18.5,0,25.5l51,51.1c7,7,18.5,7,25.5,0l12.7-12.8
		C270.4,74.8,270.4,63.4,263.4,56.3z"/>
</g>
</svg>
