<?xml version="1.0" encoding="utf-8"?>
<!-- Generator: Adobe Illustrator 21.0.0, SVG Export Plug-In . SVG Version: 6.00 Build 0)  -->
<!DOCTYPE svg PUBLIC "-//W3C//DTD SVG 1.1//EN" "http://www.w3.org/Graphics/SVG/1.1/DTD/svg11.dtd">
<svg version="1.1" id="Capa_1" xmlns="http://www.w3.org/2000/svg" xmlns:xlink="http://www.w3.org/1999/xlink" x="0px" y="0px"
	 viewBox="0 0 512 512" style="enable-background:new 0 0 512 512;" xml:space="preserve">
<style type="text/css">
	.st0{fill:#1E5799;}
</style>
<g>
	<path class="st0" d="M480.7,153.7l-6.9,6.9L335.9,22.8l6.9-6.9c21.1-21.1,55.5-21.1,76.6,0l61.2,61.3
		C501.7,98.2,501.8,132.6,480.7,153.7z M291.5,67.9l137.4,137.4L305.7,328.4c-0.4,0.4-0.9,0.7-1.4,1.2c-0.3,0.4-0.4,0.8-0.8,1.2
		c-11.2,11.2-24.1,17.6-36.3,18.1l-120.9,22c-5.7,0-10.9-2.3-14.6-6.1c-3.8-3.8-6.1-8.9-6.1-14.7l0.1-1.4L146.6,231
		c0.6-14.5,10.3-29.2,19.2-38.1c0.7-0.7,1.6-1.2,2.4-1.6c0.1-0.1,0.1-0.2,0.2-0.2L291.5,67.9z M273.4,331.2L164.9,222.8
		c-1.3,3.3-2.1,6.5-2.2,9.3l-0.1,1.2l-8.3,47.2l2.6,2.6l22.2,22.2l32.3,32.3l2.5,2.5l52.2-7.4C268.5,332.6,271,332,273.4,331.2z
		 M307.8,51.5l137.4,137.4l13.2-13.2L321,38.3L307.8,51.5z M152.9,446.6l-75.4-32.3l17.2-6.9c8.8-3.6,13.1-13.6,9.5-22.3
		c-3.5-8.8-13.5-13.1-22.3-9.5l-55.7,22.3c-6.4,2.6-10.7,8.8-10.7,15.7c-0.1,6.9,4.1,13.2,10.4,16l75.4,32.3l-42.6,17
		c-8.8,3.6-13.1,13.6-9.5,22.3c2.7,6.7,9.1,10.8,15.9,10.8c2.2,0,4.3-0.4,6.4-1.2l81.1-32.5c6.4-2.6,10.7-8.8,10.8-15.8
		C163.5,455.6,159.3,449.3,152.9,446.6z"/>
</g>
</svg>
